<svg width="181" height="148" viewBox="0 0 181 148" fill="none" xmlns="http://www.w3.org/2000/svg">
<g opacity="0.25">
<path opacity="0.25" d="M79.64 95.4906C97.3994 96.844 145.364 105.074 173.637 116.949C180.741 109.159 180.769 98.93 173.637 88.4067C170.595 84.6937 168.461 80.2782 167.414 75.5323C164.913 65.2433 158.548 60.8341 148.802 61.4808C146.827 61.8379 144.795 61.6478 142.914 60.9302C141.032 60.2127 139.368 58.993 138.09 57.3948C126.724 44.1377 106.975 46.4599 100.042 64.7731C98.3707 68.8565 95.3489 72.1914 91.5175 74.1789C81.9702 80.0579 78.6739 87.2903 79.6116 95.4022L79.64 95.4906Z" fill="#014E72"/>
</g>
<path d="M180.995 120.125C180.995 120.125 180.427 120.125 179.489 119.889L175.653 118.419C174.09 117.772 172.073 117.007 169.771 116.185C167.469 115.362 164.883 114.304 161.985 113.246L159.797 112.51L157.581 111.776L152.608 110.277L147.465 108.513C145.846 108.013 144.055 107.572 142.18 107.132L139.339 106.396L136.497 105.662L130.615 104.221L124.591 102.928C122.574 102.516 120.556 102.045 118.482 101.693L112.799 100.665L109.958 100.165L107.116 99.7525L104.275 99.3419L101.433 98.9014L95.9773 98.1655L90.6922 97.4596L88.078 97.1659L85.2365 96.7837C83.5032 96.5201 81.9403 96.2547 80.548 96.0795L75.9164 95.7257C74.382 95.7257 72.7907 95.4621 71.2847 95.2852L67.2214 94.873C64.7777 94.6677 62.4477 94.5793 60.2313 94.4625L51.309 94.0219C49.803 94.0219 48.2686 94.0219 46.7342 94.0219C45.1998 94.0219 43.637 94.0219 42.3299 93.845L38.5507 93.6398H36.8742H36.0218H35.1978C33.1235 93.4629 31.7311 93.2576 30.7082 93.1091C29.6852 92.9623 29.1738 92.8154 29.1738 92.6986C29.1738 92.5801 29.7705 92.4933 30.9071 92.4633C32.0437 92.4333 33.7486 92.4633 35.4819 92.4633H38.5791C39.7726 92.4633 41.0512 92.4633 42.3867 92.4633H46.5353C48.0129 92.4633 49.6325 92.4633 51.3943 92.4633L60.1177 92.9339C62.1351 92.9339 64.5788 93.1692 67.3919 93.4329C68.7558 93.5797 70.2334 93.6982 71.4836 93.8734C72.7339 94.0503 74.1546 94.1971 75.6606 94.3156L80.4344 94.7261C82.2245 94.9614 83.9578 95.2852 85.5491 95.5505L87.8507 95.9026L90.408 96.1963L95.6932 96.9606L101.12 97.7833L103.962 98.2239L106.803 98.6661L109.645 99.1066L112.486 99.6356L118.169 100.752C120.215 101.134 122.261 101.605 124.279 102.045L130.331 103.339L136.241 104.75L139.083 105.456L141.924 106.132C143.771 106.573 145.704 107.013 147.607 107.572L152.722 109.278L157.496 110.629L159.911 111.394L162.156 112.128C164.998 113.039 167.839 114.039 170.084 114.921C172.328 115.803 174.402 116.597 176.108 117.39C177.813 118.184 178.95 118.743 179.773 119.184C180.597 119.624 181.052 120.006 180.995 120.125Z" fill="#014E72"/>
<path fill-rule="evenodd" clip-rule="evenodd" d="M0 93.9269C0 94.0721 0.117441 94.1856 0.256026 94.1756H2.89859H5.48437C6.3586 94.1605 7.18945 94.1005 7.96236 94.0454C8.72188 93.9903 9.42542 93.9403 10.0592 93.9403L15.5434 93.735H18.6121H21.198H23.6131H24.6646H25.5455C25.9213 93.735 26.294 93.7417 26.6498 93.7484C27.316 93.7617 27.9239 93.7734 28.3868 93.735C29.0972 93.6766 29.4666 93.5882 29.4666 93.4697C29.4666 93.3529 29.1258 93.206 28.5005 93.0875C28.3362 93.0575 28.1521 93.0091 27.9463 92.9574C27.3696 92.8088 26.6224 92.6169 25.659 92.6169H25.1475H23.528H21.1412H18.2997H15.4582L9.77505 92.8823C9.29811 92.9123 8.81116 92.9557 8.31535 93.0008C7.36376 93.0875 6.37952 93.176 5.37073 93.176H2.78495C2.43681 93.1893 2.05314 93.2277 1.65114 93.2678C1.2398 93.3095 0.809239 93.3529 0.377814 93.3712C0.168877 93.3812 0 93.5565 0 93.7734V93.9269Z" fill="#014E72"/>
<path d="M41.156 61.6529C38.4418 68.8111 22.3739 91.8794 26.7599 105.521C29.9302 115.327 38.8543 118.244 49.5155 119.187C57.9621 119.905 72.7489 117.482 75.919 112.455L82.9759 116.427C68.2325 132 51.3395 127.175 42.5891 126.771C29.0181 126.121 23.2208 116.899 20.1591 106.576C17.0975 96.2549 24.6972 75.3636 31.0158 67.0832C34.1683 62.783 36.2825 57.7672 37.1824 52.4529C34.9729 52.1458 32.8704 51.2829 31.0592 49.9397C28.8878 47.9425 29.257 35.6908 31.0592 31.3152C31.9061 29.2284 31.0592 27.3659 34.2077 27.9716C37.3562 28.5776 43.1969 33.1551 44.5215 40.5601C45.846 47.9651 43.2187 50.3436 43.2187 50.3436C43.2942 54.2203 42.592 58.0709 41.156 61.6529Z" fill="white"/>
<path d="M119.443 33.3801C120.479 36.5814 121.242 39.8701 121.724 43.2084C122.418 48.2124 127.89 56.4924 127.89 63.5833C127.89 70.6741 126.609 78.9531 122.788 83.3737C121.441 85.3278 120.25 87.3921 119.226 89.5448C118.814 90.6445 120.377 94.0337 120.486 95.4021C120.739 100.762 120.264 106.132 119.074 111.355C119.074 111.355 136.185 121.745 140.788 127.064C145.391 132.382 142.482 142.48 138.617 143.96C134.274 145.598 116.078 138.575 110.085 137.655L105.048 146.114C105.048 146.114 99.2502 149.592 93.9738 147.102C91.6505 146.002 92.9316 139.472 92.0847 134.783C91.6071 132.157 85.8315 134.783 85.3103 134.783C83.7252 134.783 87.1342 147.394 81.0763 147.596C78.5589 147.9 76.0084 147.703 73.5634 147.012C70.8926 146.226 69.8287 139.584 68.3305 136.04C68.3305 136.04 59.8189 139.472 54.6077 142.299C49.3965 145.128 46.2697 146.047 43.6424 145.665C41.0151 145.285 35.2827 138.933 34.588 137.475C33.8932 136.016 32.7858 135.793 37.1067 130.496C37.1067 130.496 50.5907 114.341 59.2977 109.83C58.335 104.514 57.9994 99.0968 58.2988 93.6966C58.4074 87.5472 59.7321 86.6278 59.7321 86.6278C57.2298 84.1947 55.3315 81.1759 54.1976 77.8251C53.0638 74.4725 52.7278 70.8893 53.218 67.3754C54.8682 56.2905 57.6691 55.0788 58.429 51.668C59.1889 48.2573 61.0566 37.6436 61.7296 36.1626C58.9078 35.7672 56.0503 35.722 53.218 36.0279C51.3073 36.6787 42.1441 33.9186 39.8425 24.9879C37.5409 16.057 40.8414 14.3292 43.0126 14.4638C50.4686 15.8734 57.7507 18.1311 64.7261 21.1956C64.7261 21.1956 62.381 6.90183 67.8528 4.50082C73.3245 2.0998 73.7154 7.9116 74.4753 10.6716C75.2354 13.4315 77.2113 17.9644 77.8845 18.1214C78.5575 18.2784 84.0074 14.6434 89.4792 14.8902C93.0763 15.1115 96.6308 15.813 100.054 16.977C100.054 16.977 102.529 16.3263 103.397 9.88625C104.266 3.44616 104.179 0.282187 106.958 0.013016C109.738 -0.256322 116.295 3.60319 115.97 16.3712C115.97 16.3712 122.071 7.77693 125.132 6.85694C128.194 5.93695 132.038 5.24125 134.817 12.2873C137.596 19.3331 134.165 27.6357 130.865 29.341C127.322 31.3811 123.453 32.7489 119.443 33.3801Z" fill="white"/>
<path d="M42.4847 48.5934C42.3761 48.5934 42.3327 48.369 42.3761 48.0324C42.4195 47.6958 42.5498 47.2471 42.615 46.6635C42.725 45.9658 42.7903 45.2611 42.8103 44.5544C42.8416 43.6314 42.7908 42.7076 42.6584 41.7942L42.5281 41.0313C42.491 40.7651 42.4329 40.5024 42.3543 40.246C42.159 39.7298 42.0286 39.1689 41.8115 38.5855C41.6458 37.9993 41.4502 37.4224 41.2253 36.8577C40.9919 36.2867 40.6851 35.7508 40.3132 35.2645L39.7054 34.4567C39.5317 34.1874 39.3146 33.9405 39.1191 33.6712C38.6893 33.1522 38.2249 32.6648 37.7294 32.2127C37.2193 31.764 36.6745 31.3586 36.1009 31.001C35.5237 30.6281 34.9214 30.2981 34.2987 30.0136L34.7764 29.5874C34.839 29.7953 34.9624 29.9781 35.1295 30.1107C35.2968 30.2432 35.4995 30.3192 35.7101 30.3278L35.4495 31.001C35.3586 30.9536 35.2582 30.9289 35.1564 30.9289C35.0547 30.9289 34.9542 30.9536 34.8632 31.001C34.672 31.108 34.5254 31.2835 34.4507 31.4946C34.3818 31.7668 34.3818 32.0528 34.4507 32.325C34.4507 32.8859 34.7114 33.5591 34.8416 34.1425V34.4567L33.5822 33.761L32.8657 33.3571C32.8657 33.3571 32.8657 33.3571 32.7571 33.3571L32.6268 34.0078L32.4532 34.8605C32.4038 35.1726 32.3312 35.4801 32.2359 35.7805C32.0864 36.3018 31.9775 36.8345 31.9102 37.3737C31.8779 37.8968 31.8779 38.4215 31.9102 38.9445V40.5377C31.9102 41.0313 31.9102 41.5025 31.9102 41.9289C31.9313 42.7269 32.011 43.5221 32.1491 44.3074C32.2506 45.2791 32.4845 46.231 32.8439 47.1348C33.01 47.5683 33.2449 47.9703 33.5388 48.3241C33.8066 48.649 34.1215 48.9292 34.4725 49.1543C34.7956 49.3367 35.138 49.4797 35.4929 49.5807L36.0357 49.7377H36.318H36.5786C37.1214 49.9299 37.5772 50.3211 37.8597 50.8373C38.0117 51.1964 37.99 51.3983 37.8597 51.4207C37.7294 51.4432 37.6426 51.4207 37.4254 51.129C37.0786 50.8381 36.6689 50.638 36.2313 50.5456H36.0141H35.7752H35.2106C34.7495 50.4801 34.3018 50.336 33.8861 50.1192C33.4115 49.8726 32.9845 49.5378 32.6268 49.1319C32.2202 48.6799 31.8965 48.1552 31.6715 47.5837C31.2942 46.5896 31.0459 45.5483 30.9331 44.4869C30.8144 43.6395 30.7491 42.7851 30.7378 41.9289C30.7378 41.4353 30.7378 40.9417 30.7378 40.4704V38.9894C30.7378 38.4732 30.7378 37.8898 30.868 37.3064C30.9438 36.702 31.0822 36.1078 31.2806 35.5337L31.476 34.7259L31.6715 33.8508L31.932 32.841L32.1275 32.1455C32.1275 32.1455 32.1273 31.8089 32.2577 31.8761L32.5616 32.0557L33.4085 32.5269C33.4085 32.5269 33.6474 32.7063 33.6908 32.6616C33.6761 32.5273 33.6761 32.3918 33.6908 32.2576V31.9883C33.67 31.802 33.67 31.6138 33.6908 31.4274C33.808 31.0145 34.0616 30.6573 34.4073 30.4176C34.5857 30.2993 34.7857 30.2204 34.995 30.1857C35.2042 30.1509 35.4179 30.1611 35.6233 30.2157C35.7797 30.2631 35.9269 30.339 36.0575 30.44L36.9912 31.2255H35.797C35.4645 31.2023 35.146 31.0796 34.8798 30.8724C34.6138 30.6653 34.4118 30.3824 34.2987 30.0585V29.924L34.0382 29.1161L34.7548 29.4976C35.341 29.8342 35.9707 30.1034 36.5352 30.5074C37.1294 30.9006 37.7021 31.3276 38.2506 31.7863C38.7797 32.2473 39.2734 32.7499 39.727 33.2899C39.9442 33.5591 40.1831 33.8059 40.3784 34.0976L40.9864 34.8831C41.4077 35.4247 41.7717 36.0115 42.072 36.6333C42.3284 37.2157 42.546 37.8154 42.7236 38.4283C42.9407 38.9445 43.1144 39.5055 43.3098 40.0664C43.4122 40.3509 43.4921 40.6436 43.5487 40.9417L43.7224 41.7719C43.8724 42.7511 43.9305 43.743 43.896 44.7338C43.8573 45.4909 43.7482 46.2423 43.5703 46.9777C43.4551 47.4485 43.2799 47.9012 43.0493 48.3241C42.767 48.5037 42.5714 48.6383 42.4847 48.5934Z" fill="#014E72"/>
<path d="M41.6317 49.9399C41.6317 49.9399 41.827 50.2539 41.8704 50.815C41.957 51.6053 41.957 52.4031 41.8704 53.1935C41.7884 54.4188 41.6068 55.6349 41.3276 56.8287C40.9685 58.3518 40.5189 59.8507 39.9813 61.3165L39.5036 62.5731L38.9826 63.8297C38.6238 64.7637 38.218 65.6775 37.7666 66.5673C37.2672 67.5321 36.7026 68.4074 36.2032 69.26C35.7038 70.1127 35.2261 71.0327 34.7049 72.0194L33.8798 73.523L33.0331 74.9815L31.2743 77.9669C30.7097 78.9765 30.1669 80.0078 29.6241 81.0625C29.0813 82.1171 28.5385 83.1718 28.0391 84.2498C27.5396 85.3261 27.1706 86.2239 26.7797 87.2335C26.606 87.7275 26.3888 88.2214 26.2151 88.7371L25.7375 90.2406L25.3248 91.7893L24.9557 93.3596C24.726 94.3725 24.5592 95.3988 24.4563 96.4334C24.345 97.4313 24.287 98.4359 24.2826 99.4405V100.922L24.3912 102.469C24.4541 103.357 24.5994 104.237 24.8254 105.096C25.0574 105.934 25.3552 106.753 25.7157 107.541C26.0848 108.305 26.4974 109.113 26.9317 109.785C27.308 110.451 27.7289 111.088 28.191 111.693C28.9824 112.717 29.8859 113.643 30.8835 114.453C32.1406 115.527 33.5096 116.452 34.9656 117.213C35.7007 117.618 36.4626 117.97 37.2454 118.267C38.0054 118.581 38.8305 118.873 39.4168 119.12C40.0031 119.367 40.7848 119.569 41.4144 119.703L42.3046 119.928H42.7607H43.1949C44.3241 120.152 45.0839 120.377 45.6485 120.534C46.2131 120.691 46.5171 120.802 46.5171 120.871C46.5171 120.938 46.1697 121.028 45.5399 121.004C44.9103 120.983 43.9549 120.871 42.956 120.781H42.1527L41.1972 120.624C40.5242 120.512 39.8293 120.31 39.026 120.106C38.2225 119.905 37.5711 119.659 36.8546 119.367C35.9854 119.04 35.1369 118.658 34.3141 118.222C32.8347 117.411 31.4381 116.45 30.1451 115.351C29.0516 114.459 28.0673 113.435 27.2139 112.298C26.7276 111.654 26.2919 110.972 25.911 110.256C25.4986 109.562 25.1729 108.842 24.7602 108.013C24.3757 107.149 24.0563 106.256 23.8048 105.343C23.536 104.362 23.3759 103.354 23.3271 102.336V100.967V99.4405C23.3281 98.3976 23.3934 97.3563 23.5227 96.3216C23.6509 95.2653 23.8321 94.2173 24.0655 93.181L24.4346 91.6324L24.8688 90.0838C25.0209 89.5681 25.2163 89.0508 25.39 88.5135C25.5637 87.9745 25.7809 87.4805 25.998 86.9649C26.3888 85.9553 26.8447 84.9674 27.3007 83.9578C27.7568 82.9482 28.3647 81.7133 28.9076 80.7487C29.4504 79.7842 30.0366 78.6394 30.6012 77.6298L32.3383 74.6227L33.1851 73.1425C33.4456 72.6936 33.7063 72.2214 33.945 71.7291C34.4444 70.7634 34.9438 69.7536 35.5084 68.7438C36.073 67.7342 36.5941 66.9039 37.0067 66.096C37.4198 65.2493 37.7894 64.3804 38.1139 63.4931L38.6351 62.1692L39.1128 60.8901C39.6359 59.4213 40.0782 57.9229 40.4373 56.4023C40.763 55.0336 40.9367 53.8443 41.0887 52.7896C41.2408 51.735 41.3058 51.0169 41.371 50.5456C41.4361 50.0745 41.5231 49.9399 41.6317 49.9399Z" fill="#014E72"/>
<path d="M39.1665 50.4335C39.2751 50.4335 39.3836 50.7252 39.4706 51.2861C39.5793 52.0826 39.5793 52.8908 39.4706 53.6871C39.3165 54.9123 39.0325 56.1163 38.6237 57.2775C38.1044 58.8239 37.4655 60.3248 36.713 61.7653L36.0832 62.9321L35.4318 64.1214C34.9976 64.9292 34.5415 65.7818 33.9771 66.702C33.4125 67.6219 32.8262 68.4745 32.3051 69.3049C31.7839 70.1351 31.3063 71.0551 30.8069 72.0427L30.0251 73.5462L29.2218 75.0498C28.679 76.036 28.1578 77.069 27.6585 78.1003C27.1591 79.1332 26.6813 80.2329 26.2255 81.3327C25.7694 82.4324 25.3352 83.5755 24.9443 84.6301C24.5535 85.6848 24.2495 86.6944 23.9237 87.7057L23.4894 89.276C23.3593 89.7699 23.2505 90.2856 23.142 90.8012C23.0334 91.3169 22.9466 91.8559 22.8598 92.3715C22.7729 92.8888 22.6643 93.4495 22.5992 93.9652C22.4453 94.9981 22.3438 96.0394 22.2953 97.0841C22.2953 98.0937 22.2953 99.1267 22.2953 100.113L22.4038 101.595L22.5342 103.143C22.5876 104.046 22.6964 104.946 22.8598 105.835C23.0986 106.666 23.2941 107.519 23.598 108.348C23.9021 109.179 24.1626 110.032 24.4883 110.818C24.7454 111.584 25.0501 112.335 25.4002 113.061C25.9996 114.236 26.7283 115.335 27.5716 116.337C28.5404 117.678 29.6715 118.885 30.9372 119.928C31.5755 120.467 32.2585 120.947 32.9783 121.363C33.6737 121.8 34.3994 122.182 35.1495 122.508C35.7564 122.838 36.3881 123.115 37.0386 123.339L37.9071 123.631L38.3414 123.764L38.7757 123.899L41.1642 124.685C41.707 124.842 42.0109 124.954 42.0109 125.044C42.0109 125.133 41.6636 125.178 41.0122 125.044C40.1491 124.981 39.2922 124.846 38.45 124.64H38.0809H37.6682L36.7346 124.393C36.0343 124.21 35.3512 123.961 34.6935 123.652C33.9487 123.34 33.2235 122.982 32.5222 122.576C31.7057 122.112 30.9285 121.58 30.1989 120.982C28.9124 119.883 27.7539 118.633 26.7465 117.258C25.9017 116.135 25.1739 114.925 24.5751 113.645C24.2307 112.916 23.9261 112.166 23.6632 111.4C23.3809 110.659 23.142 109.92 22.8598 109.156C22.5776 108.393 22.3604 107.429 22.0999 106.464C21.9155 105.471 21.7995 104.467 21.7524 103.457V102.089V100.585C21.7524 99.5756 21.7524 98.5209 21.7524 97.4879C21.7524 96.4566 21.9262 95.3786 22.0999 94.324C22.0999 93.7866 22.2735 93.2693 22.382 92.7537C22.4906 92.238 22.5558 91.699 22.6861 91.1834L23.0552 89.5446L23.5112 87.9743C23.8369 86.9197 24.1844 85.8867 24.5751 84.8771C24.9659 83.8675 25.4437 82.6343 25.9214 81.5346C26.399 80.4349 26.855 79.2901 27.3762 78.2805C27.8973 77.2709 28.3967 76.1712 28.9177 75.1616L29.7212 73.658C29.9384 73.1874 30.1773 72.7152 30.4378 72.2212C30.9372 71.2347 31.4148 70.2249 32.0228 69.2375L33.6513 66.6345C34.1073 65.8267 34.5415 64.9741 34.9976 64.1438L35.6489 62.8648C35.8661 62.4608 36.0616 62.057 36.2787 61.6755C36.9919 60.2832 37.6157 58.8441 38.146 57.3672C38.5588 56.2337 38.8644 55.0612 39.0579 53.8667C39.2317 52.8793 39.2968 52.1163 39.3619 51.6227C39.427 51.1291 39.0797 50.4559 39.1665 50.4335Z" fill="#014E72"/>
<path d="M120.344 114.857C120.344 114.745 120.604 114.745 121.017 114.857C121.582 114.997 122.129 115.207 122.645 115.486C123.452 115.859 124.235 116.287 124.99 116.764C125.859 117.325 126.858 117.975 127.878 118.738L128.682 119.322L129.485 119.906C130.049 120.287 130.614 120.736 131.244 121.23C131.873 121.724 132.373 122.306 132.915 122.823C133.458 123.339 134.045 123.788 134.674 124.303L135.63 125.111L136.563 125.987L138.409 127.759C139.039 128.365 139.668 128.971 140.276 129.643C140.648 129.986 140.919 130.429 141.058 130.923C141.113 131.401 141.113 131.883 141.058 132.359C141.058 133.19 140.863 133.997 140.732 134.805L140.559 135.995C140.559 136.375 140.559 136.779 140.559 137.161C140.53 137.603 140.45 138.041 140.32 138.463C140.186 138.908 139.965 139.322 139.668 139.674C139.086 140.335 138.332 140.811 137.497 141.043C137.066 141.183 136.622 141.273 136.173 141.313H136.346C135.963 141.415 135.569 141.467 135.174 141.47C134.791 141.505 134.406 141.505 134.023 141.47C133.628 141.43 133.236 141.361 132.85 141.268C132.112 141.111 131.483 140.909 130.896 140.796L128.985 140.46C128.334 140.347 127.683 140.19 127.075 140.033L125.403 139.539C124.426 139.271 123.47 139.09 122.558 138.867L118.932 137.947L117.065 137.475C116.457 137.318 115.827 137.14 115.306 136.959L113.786 136.489L113.113 136.263H112.787L112.462 136.152C111.658 135.815 111.115 135.523 110.725 135.321C110.334 135.119 110.138 134.962 110.16 134.895C110.182 134.828 110.442 134.783 110.92 134.895C111.398 135.007 112.049 135.164 112.766 135.344H113.048H113.352L114.047 135.501L115.588 135.86L117.282 136.287C117.868 136.42 118.541 136.555 119.236 136.757L122.775 137.7C123.579 137.902 124.578 138.104 125.707 138.44L127.357 138.933C127.911 139.119 128.477 139.261 129.051 139.361L130.983 139.764C131.721 139.898 132.416 140.123 133.154 140.28C133.459 140.372 133.772 140.432 134.088 140.46C134.435 140.482 134.783 140.482 135.13 140.46C135.462 140.507 135.798 140.507 136.129 140.46C136.451 140.429 136.77 140.377 137.085 140.302C137.763 140.142 138.386 139.791 138.887 139.292C139.119 139.034 139.309 138.738 139.451 138.418C139.587 138.091 139.667 137.74 139.69 137.385C139.69 136.981 139.69 136.555 139.842 136.152L140.038 134.917C140.19 134.132 140.32 133.325 140.428 132.539C140.459 132.113 140.459 131.686 140.428 131.259C140.428 130.878 140.19 130.653 139.907 130.294C139.625 129.936 138.713 129.038 138.105 128.432L136.259 126.681L135.326 125.829L134.414 125.089C133.784 124.572 133.111 124.102 132.481 123.517C131.852 122.935 131.33 122.419 130.809 121.992C130.288 121.567 129.702 121.163 129.137 120.781L128.269 120.175L127.444 119.501C126.38 118.761 125.403 118.132 124.556 117.572C123.709 117.011 122.927 116.54 122.254 116.18L120.8 115.327C120.474 115.013 120.322 115.013 120.344 114.857Z" fill="#014E72"/>
<path d="M68.2383 133.997C68.2383 134.109 68.0211 134.244 67.6085 134.378L65.8063 134.871C65.068 135.073 64.1343 135.389 63.0921 135.793C61.9212 136.258 60.7758 136.789 59.6615 137.385L58.7278 137.879L57.8158 138.439L55.7965 139.696C55.0365 140.168 54.2766 140.527 53.6252 140.907C52.9737 141.29 52.1921 141.717 51.4538 142.142C51.0629 142.366 50.6505 142.569 50.2161 142.771L48.9133 143.287C48.0182 143.606 47.0944 143.831 46.1557 143.96C45.1789 144.138 44.1795 144.138 43.2027 143.96C42.9583 143.906 42.7186 143.831 42.4862 143.736C42.2908 143.624 41.965 143.736 41.7262 143.354L40.6622 142.344C40.0326 141.693 39.4246 141.043 38.8384 140.347L37.9916 139.292C37.7526 138.933 37.4705 138.574 37.2316 138.192C36.9888 137.797 36.7712 137.385 36.5802 136.959C36.3815 136.497 36.2568 136.005 36.211 135.501C36.1812 134.96 36.3018 134.423 36.5585 133.952C36.7974 133.548 37.0579 133.189 37.2968 132.831C37.8178 132.111 38.339 131.461 38.8601 130.81L39.6418 129.845C39.9241 129.51 40.228 129.173 40.5103 128.881C40.7926 128.589 41.6393 127.781 42.0737 127.265L43.4632 125.605C43.9193 125.044 44.4187 124.46 44.8963 123.944L46.1991 122.508C47.0026 121.678 47.7409 120.826 48.5008 120.106C49.5313 119.135 50.6111 118.222 51.7361 117.37L53.4515 116.068C54.0161 115.642 54.6239 115.215 55.1233 114.878L56.5782 113.892L57.2078 113.443L57.5119 113.218L57.8375 112.994C58.6409 112.455 59.2272 112.141 59.6181 111.894C60.009 111.647 60.2695 111.512 60.3345 111.581C60.3997 111.647 60.3347 111.894 59.8786 112.298C59.3724 112.819 58.8359 113.304 58.2718 113.757L58.0329 113.959L57.7724 114.184L57.1644 114.699C56.7301 115.058 56.2743 115.44 55.7531 115.821L54.2114 116.987L52.4309 118.357C51.8664 118.806 50.7373 119.636 49.3259 120.937C48.6528 121.543 47.9146 122.396 47.0026 123.315L45.678 124.707C45.2438 125.178 44.8095 125.65 44.3535 126.187L42.8988 127.893C42.3342 128.522 41.7262 129.083 41.205 129.622C40.9305 129.86 40.6763 130.122 40.4451 130.406L39.6635 131.327C39.1423 131.954 38.5995 132.605 38.1001 133.256C37.6007 133.907 37.0361 134.624 37.0579 135.299C37.0503 135.689 37.1168 136.078 37.2532 136.443C37.4079 136.829 37.5894 137.204 37.796 137.565C38.0132 137.924 38.2521 138.282 38.5128 138.665C38.7733 139.045 39.0338 139.36 39.2943 139.719C39.5548 140.078 40.4235 141.043 41.0097 141.693L42.0519 142.726C42.1836 142.88 42.3578 142.99 42.5513 143.04C42.764 143.129 42.9816 143.204 43.2027 143.264C44.082 143.496 44.9963 143.549 45.8952 143.421C46.7966 143.305 47.6841 143.095 48.5442 142.793C48.9785 142.658 49.391 142.456 49.8036 142.299C50.1975 142.127 50.5818 141.932 50.9544 141.717L53.2995 140.347C54.0811 139.898 54.8194 139.539 55.4708 139.135C56.1222 138.731 56.7301 138.261 57.3815 137.834L58.3804 137.183L59.3574 136.645C60.5069 136.003 61.6966 135.441 62.9185 134.962C63.8662 134.596 64.8388 134.304 65.8281 134.087C66.4503 133.955 67.0823 133.88 67.7171 133.862C67.9994 133.84 68.2383 133.907 68.2383 133.997Z" fill="#014E72"/>
<path d="M46.5512 138.104L46.3125 137.969C46.2865 137.955 46.2636 137.935 46.2449 137.914C46.2263 137.89 46.2123 137.864 46.2039 137.834L46.0736 137.655L45.813 137.318H45.7045C45.609 137.244 45.5278 137.153 45.4656 137.049C45.4343 136.916 45.4343 136.777 45.4656 136.645C45.4496 136.539 45.3954 136.442 45.3136 136.375L45.2051 136.242V136.085C45.1675 135.98 45.1163 135.881 45.0531 135.793L44.836 135.522L44.6405 135.254L44.4234 135.03H44.3148H44.1844H44.0543H43.9239L43.6852 134.85L43.4463 134.693H43.3159C43.3159 134.693 43.3159 134.693 43.2074 134.693C43.0988 134.693 43.2075 134.491 43.0772 134.446H42.8165C42.7455 134.466 42.6705 134.466 42.5996 134.446L42.4257 134.289C42.3102 134.224 42.1858 134.179 42.0566 134.154L41.6006 133.975H41.34L41.1447 133.84C41.0773 133.8 41.0182 133.747 40.971 133.683C40.9545 133.533 40.9545 133.383 40.971 133.234C40.9584 133.138 40.9584 133.039 40.971 132.942C40.971 132.942 41.0795 132.807 41.1447 132.807C41.2099 132.807 41.2966 132.807 41.4052 132.807H41.5789H41.7961H42.035C42.1279 132.787 42.2242 132.787 42.3173 132.807L42.7949 133.033C42.9388 133.066 43.0727 133.136 43.1858 133.234L43.3593 133.436C43.4137 133.496 43.4806 133.542 43.5548 133.57L43.8154 133.705C43.9239 133.705 43.9457 133.907 43.9891 134.019V134.154H44.1194L44.3583 134.379L44.5971 134.603H44.7056H44.836L44.9662 134.738L45.0747 134.872L45.2702 135.164L45.4656 135.477L45.6827 135.793C45.7603 135.888 45.826 135.993 45.8782 136.106V136.263L46.0084 136.398C46.111 136.477 46.187 136.587 46.2255 136.712C46.2255 136.847 46.2255 136.892 46.2255 136.981C46.2255 137.071 46.3341 136.981 46.421 137.139H46.5296C46.662 137.265 46.7788 137.408 46.8771 137.565C46.9761 137.727 47.0358 137.912 47.0506 138.104C47.0431 138.249 46.9808 138.386 46.8771 138.484C46.7869 138.474 46.7037 138.429 46.6436 138.359C46.5835 138.287 46.5506 138.197 46.5512 138.104Z" fill="#014E72"/>
<path d="M131.496 137.453C131.459 137.473 131.418 137.483 131.376 137.483C131.335 137.483 131.294 137.473 131.257 137.453C131.222 137.36 131.222 137.255 131.257 137.161C131.246 137.028 131.246 136.892 131.257 136.757V136.197V135.905C131.236 135.786 131.236 135.664 131.257 135.546C131.317 135.432 131.39 135.327 131.474 135.232C131.507 135.114 131.507 134.99 131.474 134.872C131.453 134.806 131.453 134.736 131.474 134.67V134.468C131.523 134.346 131.559 134.217 131.583 134.087V133.683V133.301V132.921V132.741C131.595 132.682 131.595 132.62 131.583 132.56V132.358V132.18L131.691 131.821V131.484V131.304V131.147C131.691 131.147 131.887 130.99 131.908 130.9C131.918 130.803 131.918 130.706 131.908 130.61C131.883 130.513 131.883 130.413 131.908 130.318L132.082 130.092C132.152 129.95 132.203 129.8 132.234 129.643L132.473 129.083V128.814C132.512 128.719 132.572 128.635 132.647 128.567L132.82 128.387H132.929C133.08 128.367 133.234 128.367 133.385 128.387C133.469 128.358 133.561 128.358 133.645 128.387C133.683 128.41 133.713 128.442 133.733 128.482C133.752 128.522 133.759 128.567 133.754 128.612C133.754 128.612 133.754 128.747 133.602 128.859V129.083C133.602 129.083 133.602 129.239 133.602 129.353C133.608 129.45 133.608 129.547 133.602 129.643L133.341 130.116C133.308 130.267 133.249 130.411 133.168 130.541L132.994 130.721C132.926 130.786 132.88 130.873 132.864 130.968C132.87 131.057 132.87 131.147 132.864 131.237C132.864 131.237 132.69 131.417 132.603 131.484C132.567 131.476 132.53 131.476 132.495 131.484V131.641L132.364 131.933L132.234 132.27V132.427V132.584C132.246 132.642 132.246 132.704 132.234 132.764V132.942L132.104 133.28L131.973 133.638C131.966 133.765 131.966 133.892 131.973 134.021C131.986 134.147 131.986 134.274 131.973 134.401V134.581C131.963 134.648 131.963 134.716 131.973 134.783C132.006 134.908 132.006 135.038 131.973 135.164C131.914 135.264 131.863 135.369 131.821 135.479C131.8 135.582 131.8 135.689 131.821 135.793C131.832 135.844 131.832 135.898 131.821 135.95V136.106C131.845 136.278 131.845 136.452 131.821 136.622C131.836 136.757 131.836 136.892 131.821 137.026C131.773 137.121 131.707 137.206 131.626 137.273C131.617 137.311 131.601 137.346 131.578 137.376C131.556 137.408 131.528 137.433 131.496 137.453Z" fill="#014E72"/>
<path d="M101.726 18.7271C101.731 18.8093 101.731 18.8918 101.726 18.974V18.8168V19.0189C101.666 18.9111 101.615 18.7987 101.574 18.6823C101.568 18.6001 101.568 18.5176 101.574 18.4354C101.561 18.3688 101.561 18.3002 101.574 18.2334V18.0092H101.4V18.1886C101.545 18.3417 101.656 18.5255 101.726 18.7271Z" fill="#014E72"/>
<path d="M112.253 22.8328C112.253 22.8328 112.252 22.586 112.361 22.3841L112.86 21.3966C113.034 20.9703 113.23 20.4318 113.425 19.781C113.631 19.043 113.798 18.2939 113.924 17.5371V16.8863C113.936 16.6695 113.936 16.4524 113.924 16.2357V14.7995C113.924 14.3957 113.924 13.7225 114.055 13.2736C114.05 12.7588 113.984 12.2463 113.859 11.7479L113.686 10.94L113.512 10.1322C113.375 9.58432 113.208 9.04498 113.012 8.51648C112.817 7.97797 112.6 7.46182 112.361 6.92331C112.122 6.3848 111.862 5.86865 111.579 5.37503C111.297 4.88141 111.037 4.49993 110.732 4.07356C110.429 3.64719 110.407 3.66973 110.233 3.51253C110.068 3.33731 109.886 3.17944 109.69 3.04143C109.497 2.90493 109.294 2.78495 109.082 2.68232C108.504 2.38628 107.854 2.27698 107.215 2.36826C107.056 2.44085 106.912 2.54598 106.793 2.67698C106.673 2.80797 106.581 2.96251 106.52 3.13105C106.425 3.32379 106.353 3.52704 106.303 3.73697L106.129 4.43268C105.995 4.84604 105.915 5.27624 105.89 5.71162C105.858 6.14483 105.858 6.57988 105.89 7.01309C105.912 7.45414 105.912 7.89603 105.89 8.33708V9.52624C105.89 10.222 105.89 10.9175 105.89 11.5683C105.792 12.4616 105.603 13.3415 105.326 14.1936C105.174 14.62 105.022 15.0689 104.827 15.4951C104.646 15.9022 104.42 16.2864 104.153 16.6395C103.93 16.9509 103.683 17.2434 103.415 17.5146L103.046 17.8512L102.851 18.0084L102.655 18.1654C102.262 18.3944 101.837 18.5608 101.396 18.659C101.092 18.659 100.94 18.659 100.896 18.659C100.853 18.659 100.896 18.4348 101.2 18.2327C101.504 18.0308 101.787 17.8063 102.134 17.4922L102.264 17.3576L102.395 17.2005C102.395 17.0884 102.59 16.9761 102.677 16.8414C102.88 16.5759 103.069 16.2987 103.241 16.0112C103.441 15.6973 103.615 15.3671 103.763 15.024L104.219 13.7898C104.452 13.058 104.626 12.3074 104.74 11.5458C104.74 10.9849 104.74 10.3566 104.74 9.54877L104.848 8.38198C104.848 8.0005 104.848 7.61902 104.848 7.17012C104.848 6.72139 104.848 6.29502 104.848 5.77887C104.894 5.26739 104.996 4.7631 105.152 4.27549L105.348 3.60231C105.348 3.3555 105.5 3.10869 105.608 2.86188C105.72 2.57569 105.887 2.31652 106.1 2.10025C106.313 1.88398 106.567 1.7156 106.846 1.6053C107.406 1.43642 108.001 1.43642 108.561 1.6053C108.826 1.67672 109.081 1.78236 109.321 1.91936C109.572 2.03951 109.811 2.18219 110.038 2.34573C110.264 2.52045 110.482 2.70768 110.689 2.90676C110.881 3.10768 111.055 3.32529 111.21 3.55741C111.547 4.00064 111.845 4.47374 112.1 4.97119C112.391 5.49352 112.652 6.03302 112.882 6.58672C113.121 7.14776 113.36 7.68627 113.555 8.22478C113.765 8.7753 113.947 9.33717 114.098 9.90772C114.098 10.1771 114.228 10.4688 114.293 10.7381C114.359 11.0073 114.424 11.2317 114.489 11.5458C114.641 12.1025 114.735 12.674 114.771 13.2513C114.771 13.8347 114.771 14.3508 114.771 14.8219V16.2806C114.793 16.5269 114.793 16.7747 114.771 17.021V17.6942C114.671 18.5097 114.496 19.3135 114.25 20.0952C114.072 20.714 113.824 21.3089 113.512 21.8679C113.299 22.2279 113.027 22.5468 112.708 22.8103C112.47 23.0124 112.253 23.0123 112.253 22.8328Z" fill="#014E72"/>
<path d="M68.0209 24.0221C67.9123 24.0221 67.8036 24.0221 67.6517 23.7976C67.4602 23.5101 67.3 23.2015 67.174 22.8776C67.0437 22.4738 66.8049 21.98 66.653 21.3742C66.5009 20.7683 66.3055 20.0951 66.1534 19.3547L66.0232 18.7713V18.1879C65.9243 17.7592 65.8517 17.3245 65.8061 16.8863C65.7619 16.4312 65.7619 15.9726 65.8061 15.5176C65.8061 15.0688 65.8061 14.6199 65.8061 14.1263V13.3859V12.6229C65.8405 12.1106 65.9058 11.601 66.0016 11.097C66.1365 10.0338 66.4449 9.00203 66.9135 8.04533C67.1484 7.60127 67.4326 7.18709 67.7604 6.81112C67.9143 6.61104 68.0974 6.43698 68.3032 6.29497C68.4986 6.16046 68.6723 5.98091 68.8894 5.84624L69.5626 5.50965C69.8207 5.38566 70.103 5.32425 70.3877 5.33009C70.9623 5.36213 71.501 5.62846 71.8858 6.07069C72.2019 6.43798 72.4718 6.84516 72.6893 7.28238L72.9932 7.91066C72.9932 8.13511 73.1451 8.35939 73.2103 8.58384C73.2813 8.97834 73.3755 9.36799 73.4926 9.75064C73.4926 10.0649 73.7531 10.4687 73.9052 10.8502C74.0406 11.2098 74.1565 11.5769 74.2525 11.9497L74.4914 12.937C74.6652 13.5429 74.9041 14.059 75.0994 14.575C75.4469 15.5624 75.7508 16.258 75.9027 16.6171L76.3805 17.6043L76.8364 18.5692C76.9422 18.8539 77.0655 19.1312 77.2055 19.3996L77.401 19.7585V19.9381V20.1177C77.5525 20.4733 77.6759 20.8409 77.7701 21.217C77.7701 21.464 77.7701 21.6434 77.7701 21.6883C77.7701 21.7332 77.553 21.6883 77.3358 21.4864C77.0758 21.2039 76.8432 20.8956 76.6411 20.5664L76.5325 20.4317V20.2747L76.2718 19.9157C76.0833 19.6617 75.9163 19.3914 75.7726 19.1079L75.2514 18.1879C75.0776 17.8513 74.8823 17.4922 74.7086 17.0884C74.5348 16.6843 74.2743 16.0112 73.9268 15.0014C73.6975 14.4384 73.5016 13.8615 73.3406 13.2736L73.1235 12.2638C73.0567 11.9197 72.9624 11.5819 72.8412 11.254L72.4721 10.1546C72.352 9.74246 72.2576 9.32277 72.1898 8.89791C72.1521 8.71484 72.1014 8.53478 72.0379 8.3594C71.9714 8.16682 71.8916 7.97925 71.799 7.79852C71.6354 7.41738 71.4315 7.05609 71.191 6.72134L70.8001 6.33986C70.6264 6.33986 70.4962 6.18283 70.3443 6.18283C70.1922 6.18283 70.0184 6.18283 69.8231 6.18283L69.2803 6.42964C69.0936 6.52809 68.9188 6.64858 68.7591 6.78876C68.5729 6.88521 68.4098 7.02322 68.2814 7.1926C67.968 7.49014 67.7039 7.83891 67.4997 8.22489C67.2468 8.65059 67.0358 9.10166 66.8701 9.57108C66.7375 10.0498 66.6359 10.5371 66.566 11.0297C66.566 11.5234 66.3923 12.017 66.3707 12.4882V13.2288C66.3707 13.4531 66.3707 13.6776 66.3707 13.9244C66.3707 14.1712 66.4792 14.8444 66.5009 15.3605C66.4683 15.8011 66.4683 16.2438 66.5009 16.6843C66.5514 17.0865 66.6312 17.484 66.7398 17.8737L66.8917 18.4571C66.8795 18.6513 66.8795 18.8462 66.8917 19.0405C67.0655 19.7585 67.261 20.4317 67.4129 20.9928C67.5649 21.5536 67.7386 22.0698 67.8254 22.5187C67.9185 22.8424 67.9911 23.1723 68.0425 23.5059C68.1511 23.8425 68.1077 23.9772 68.0209 24.0221Z" fill="#014E72"/>
<path d="M80.739 18.7719C80.739 18.7719 80.739 18.57 80.739 18.4579C80.8815 18.328 81.0426 18.2221 81.2168 18.1436C81.434 18.1436 81.6945 17.8968 82.0202 17.7847L83.0842 17.4032H83.3881H83.6922C83.9032 17.2909 84.1304 17.215 84.3652 17.1788C84.6258 17.1788 84.8864 17.1788 85.1253 17.1788C85.3764 17.1567 85.6242 17.104 85.8634 17.0217H86.2543H86.6451H87.4702H88.2954H89.1638H92.2254H92.9637H93.3328H93.7019C93.9072 17.1097 94.1176 17.1846 94.3316 17.246H94.9614C95.1753 17.2672 95.3864 17.3123 95.591 17.3807L96.1338 17.5602C96.4371 17.6667 96.7498 17.742 97.0675 17.7847C97.6538 17.9192 98.0447 18.0764 98.2618 18.1213L98.8696 18.3232C99.0637 18.3993 99.2524 18.4892 99.4342 18.5924L99.8903 18.8617L100.064 19.0187H100.173C100.323 19.2016 100.447 19.4057 100.542 19.6247C100.628 19.7892 100.628 19.9013 100.542 19.9612C100.542 19.9612 100.39 19.9612 100.259 19.9612C100.063 19.891 99.874 19.8009 99.6949 19.6919H99.4776L99 19.5349L98.4789 19.3553C98.2834 19.3553 98.0881 19.3553 97.871 19.1759C97.5153 19.0371 97.1528 18.9173 96.7853 18.8168C96.4692 18.7556 96.1574 18.6731 95.8517 18.57L95.3522 18.3456C95.1775 18.2768 94.9951 18.2316 94.8093 18.2109H94.2013C93.9745 18.1486 93.7557 18.0582 93.5501 17.9417H93.246H92.9203H92.2038H91.4872H90.0107C89.7578 17.9187 89.5036 17.9187 89.2508 17.9417H88.4255L87.6004 18.0539H86.8189H86.428H86.0589C85.8207 18.1597 85.5735 18.2423 85.3206 18.3007C85.0601 18.3007 84.7996 18.3007 84.5824 18.3007C84.3708 18.3572 84.1666 18.44 83.9745 18.5476L83.6704 18.6822H83.3665L82.3459 19.0862C82.0202 19.0862 81.7597 19.2881 81.5208 19.333C81.3338 19.3628 81.1433 19.3628 80.9562 19.333C80.8955 19.3281 80.8374 19.3059 80.7882 19.2687C80.7392 19.2315 80.7011 19.1808 80.6785 19.1224C80.656 19.064 80.6497 19.0002 80.6603 18.9381C80.671 18.8762 80.6984 18.8186 80.739 18.7719Z" fill="#014E72"/>
<path d="M117.504 33.38C117.504 33.38 117.982 33.7615 118.503 34.704C119.272 36.0887 119.781 37.6115 120.002 39.1918C120.263 41.5065 120.64 43.8058 121.131 46.0806C122.035 48.9722 123.205 51.7676 124.627 54.4281C124.952 55.2134 125.278 55.9987 125.582 56.8289C125.886 57.6593 126.146 58.4895 126.385 59.3646C126.912 61.2637 127.204 63.224 127.254 65.1988C127.259 67.2435 127.048 69.2826 126.624 71.2799C126.262 73.2909 125.731 75.2651 125.039 77.1808C124.652 78.2338 124.187 79.2534 123.649 80.233C123.115 81.2109 122.512 82.1487 121.847 83.0382C120.416 84.7487 118.773 86.2572 116.962 87.5255C115.143 88.8839 113.184 90.027 111.121 90.9364C109.022 91.8492 106.84 92.5418 104.607 93.0007C102.593 93.4262 100.555 93.7183 98.5053 93.8768C97.4847 93.8768 96.4425 94.0103 95.422 94.0554C94.4014 94.1004 93.446 94.0554 92.4255 94.0554C91.4051 94.0554 90.3844 94.0554 89.364 94.0554C88.3434 94.0554 87.1926 93.9202 86.3023 93.8534C84.283 93.6966 82.3071 93.4496 80.3529 93.1359C78.3987 92.8221 76.5095 92.44 74.6422 91.9243C73.7085 91.6991 72.7966 91.407 71.8847 91.0933C70.9203 90.7946 69.9771 90.4275 69.0619 89.9936C67.2598 89.231 65.8049 88.2664 64.437 87.5488C62.9789 86.6327 61.6052 85.5814 60.3332 84.4066C60.0075 84.1145 59.6601 83.8459 59.3562 83.5321L58.5311 82.4992C57.9274 81.8267 57.4161 81.0724 57.011 80.2547C56.5985 79.4921 56.1859 78.7962 55.8384 78.0119C55.4911 77.2259 55.3392 76.5534 55.1221 75.7674L54.7746 74.7795L54.6009 73.7699C54.4707 73.0974 54.3403 72.4465 54.2318 71.774C54.0956 70.4918 54.0232 69.2035 54.0146 67.914C54.0146 66.6798 54.2534 65.67 54.3403 64.5256C54.4157 63.5594 54.5904 62.604 54.8614 61.6759C55.2679 60.4281 55.7465 59.2068 56.2945 58.0183L58.4659 53.5305C59.1214 52.0882 59.6449 50.5858 60.0292 49.0427C60.3984 47.6065 60.6589 46.2376 60.876 44.9587L61.1799 43.0962L61.3319 42.1762L61.5056 41.2562C61.8218 39.597 62.2722 37.9683 62.8519 36.387C63.02 35.8237 63.2768 35.2931 63.6119 34.8161C63.5912 35.4593 63.474 36.0951 63.2644 36.701C62.8536 38.3424 62.5274 40.0053 62.2873 41.6826V42.423L62.1788 43.2309C62.1788 43.8366 62.0268 44.4649 61.9399 45.1157C61.7676 46.5362 61.514 47.945 61.1799 49.3344C60.8234 50.8715 60.3366 52.3732 59.7252 53.8222C59.0739 55.3481 58.2704 56.9636 57.5538 58.714C57.0262 59.8217 56.5622 60.9605 56.1643 62.1246C55.9099 62.9632 55.7496 63.8289 55.6865 64.7052C55.6865 65.6926 55.4042 66.7472 55.3392 67.8691C55.274 68.9911 55.3392 70.113 55.4694 71.4818L55.8384 73.5012L56.0122 74.5776C56.0122 74.9146 56.2511 75.2734 56.3596 75.6322L57.0762 77.7198L58.1184 79.6723C58.4664 80.3214 58.8892 80.9239 59.3778 81.4679C59.8261 82.0887 60.3355 82.6594 60.8978 83.1717C61.5056 83.7107 62.092 84.2714 62.7434 84.8104L64.9148 86.3357C66.4739 87.3152 68.0912 88.193 69.7567 88.9623C70.5055 89.3394 71.2826 89.6548 72.0801 89.9035C72.9486 90.2289 73.8329 90.5059 74.7291 90.7345C76.5531 91.2735 78.4204 91.654 80.3312 92.0128C82.2419 92.3732 84.1744 92.6202 86.1503 92.7988L89.0817 93.024H92.0564H94.8791C95.8997 93.024 96.9201 93.024 97.9407 92.8889C99.9662 92.7754 101.982 92.5284 103.977 92.1479C106.201 91.7241 108.382 91.0849 110.491 90.2406C112.528 89.3728 114.465 88.2748 116.267 86.9648C118.068 85.7082 119.691 84.198 121.087 82.4775C121.751 81.6348 122.354 80.742 122.889 79.8058C123.38 78.908 123.815 77.9785 124.192 77.024C124.948 75.0048 125.515 72.9171 125.886 70.7861C126.278 68.8604 126.475 66.8976 126.472 64.9296C126.417 63.1073 126.147 61.2989 125.669 59.5442C125.444 58.6631 125.175 57.7943 124.865 56.9413C124.561 56.1035 124.236 55.2957 123.888 54.5177C122.425 51.7699 121.218 48.8848 120.284 45.9011C119.781 43.5336 119.425 41.1352 119.22 38.7205C119.005 37.263 118.596 35.8434 118.004 34.5019C117.613 33.941 117.396 33.4474 117.504 33.38Z" fill="#014E72"/>
<path d="M102.325 63.6953C102.363 63.7961 102.363 63.9084 102.325 64.0093L102.042 64.301L101.652 64.8395C101.521 65.064 101.348 65.3557 101.196 65.6699L101.065 65.9167L100.935 66.1859C100.856 66.3963 100.746 66.5929 100.61 66.7695C100.449 66.9624 100.249 67.1156 100.023 67.2182C99.8286 67.3831 99.6175 67.5261 99.3936 67.6445C99.2497 67.6676 99.1032 67.6676 98.9593 67.6445C98.8225 67.6664 98.6835 67.6664 98.5467 67.6445C98.2733 67.5768 98.0152 67.4548 97.7867 67.2854C97.5194 67.1057 97.3201 66.8362 97.2221 66.5225C97.1467 66.2284 97.1467 65.919 97.2221 65.625C97.2683 65.3707 97.3412 65.1224 97.4393 64.8844L97.613 64.5255L97.765 64.2112C97.8143 64.0946 97.8724 63.9821 97.9387 63.8746L98.1558 63.583L98.6118 63.0444L99.1329 62.5508L99.4152 62.3489C99.5123 62.2741 99.6231 62.2207 99.7409 62.1917L100.327 62.0123L100.805 61.7206C100.97 61.62 101.145 61.5372 101.326 61.4736H101.825C102.092 61.3865 102.353 61.2816 102.607 61.1596L103.649 60.823L104.17 60.666H104.713H105.582C105.781 60.729 105.971 60.8196 106.146 60.9351C106.277 60.9351 106.364 61.0923 106.385 61.1819C106.379 61.235 106.36 61.2856 106.329 61.3286C106.299 61.3718 106.258 61.4064 106.212 61.4289C106.031 61.4468 105.849 61.4468 105.669 61.4289H105.517H105.321L104.909 61.5634L104.453 61.7206L103.91 61.9L102.933 62.1693C102.678 62.276 102.417 62.3659 102.151 62.4387H101.695C101.535 62.4602 101.38 62.5136 101.239 62.5957L100.761 62.8425C100.571 62.9086 100.375 62.9538 100.175 62.9772H99.9364L99.6975 63.1342L99.2416 63.5157L98.8072 63.9421L98.6118 64.1889L98.4599 64.4357L98.2862 64.705L98.1342 64.9742C98.0432 65.1529 97.9703 65.341 97.9169 65.5352C97.8872 65.736 97.8872 65.9402 97.9169 66.141C97.9732 66.3062 98.08 66.4479 98.221 66.545C98.3688 66.6626 98.5389 66.7468 98.7204 66.7918C98.8133 66.8132 98.9096 66.8132 99.0027 66.7918C99.0808 66.8148 99.1635 66.8148 99.2416 66.7918L99.6323 66.4776C99.7912 66.3966 99.9319 66.282 100.045 66.141C100.146 65.9803 100.226 65.8067 100.284 65.625L100.392 65.3333V65.0865C100.536 64.7603 100.703 64.4452 100.892 64.144C101.062 63.8895 101.275 63.6691 101.521 63.4932C101.696 63.378 101.901 63.323 102.108 63.3361C102.216 63.5381 102.281 63.5829 102.325 63.6953Z" fill="#014E72"/>
<path d="M115.075 32.2572C115.075 32.145 115.292 32.0329 115.705 31.9206C116.117 31.8085 116.747 31.7412 117.529 31.6514L120.286 31.2699C121.487 31.0989 122.676 30.8516 123.847 30.5293L124.824 30.2377C125.128 30.2377 125.454 30.0134 125.78 29.8563C126.105 29.6991 127.104 29.2504 127.843 28.8689C128.589 28.5362 129.315 28.1539 130.014 27.7245C130.672 27.2801 131.234 26.6994 131.664 26.0192C131.914 25.6619 132.139 25.2869 132.337 24.8971C132.556 24.5168 132.745 24.1191 132.902 23.708C133.243 22.8702 133.498 21.9978 133.662 21.105C133.833 20.1875 133.927 19.2567 133.944 18.3225C133.969 17.3849 133.918 16.4467 133.792 15.5177C133.678 14.6806 133.496 13.8549 133.249 13.0492L132.793 11.8824L132.185 10.8278C131.925 10.5137 131.686 10.1995 131.404 9.90779C131.114 9.64897 130.81 9.40917 130.492 9.18973C129.895 8.78155 129.186 8.58463 128.472 8.62869C127.757 8.70111 127.071 8.95543 126.475 9.36928L125.563 10.0199L124.629 10.7829C124.082 11.2224 123.567 11.7024 123.087 12.219C122.631 12.7352 122.197 13.2737 121.763 13.8347C121.329 14.3956 120.873 14.9566 120.438 15.4728L119.201 16.8864C118.484 17.7391 117.855 18.6142 117.225 19.3995C115.965 20.9029 115.053 21.9352 114.446 22.4514C113.838 22.9674 113.425 23.4386 112.882 23.8873C112.356 24.3317 111.805 24.7439 111.232 25.1216C110.719 25.4293 110.19 25.7065 109.647 25.9518L108.909 26.2435H108.539H108.17C107.452 26.3691 106.718 26.3691 105.999 26.2435C105.543 26.2435 105.304 26.0864 105.282 26.0192C105.261 25.9518 105.543 25.8173 106.042 25.7499C106.681 25.6439 107.312 25.4939 107.931 25.3011L108.214 25.189L108.496 25.0543C108.729 24.9604 108.954 24.8479 109.169 24.7177C109.65 24.4654 110.114 24.1805 110.559 23.865C111.061 23.5175 111.54 23.1351 111.992 22.7205C112.499 22.3017 113.02 21.8081 113.555 21.2395C114.055 20.7684 115.01 19.8036 116.226 18.3898C116.812 17.6942 117.464 16.8191 118.397 15.8317L119.657 14.4405C120.069 13.9692 120.438 13.5205 120.873 12.982C121.307 12.4435 121.763 11.8824 122.284 11.299C122.834 10.7115 123.429 10.1711 124.064 9.68335L124.911 9.0327C125.215 8.76336 125.563 8.56143 125.888 8.31462C126.616 7.8472 127.429 7.54166 128.277 7.417C129.17 7.33823 130.063 7.56702 130.817 8.06782C131.196 8.2911 131.546 8.56244 131.86 8.87566C132.171 9.18522 132.454 9.52314 132.706 9.88543C132.979 10.2547 133.212 10.6534 133.401 11.0746C133.59 11.4836 133.757 11.9031 133.901 12.3312C134.176 13.1839 134.365 14.0637 134.465 14.9566C134.613 15.921 134.664 16.8986 134.617 17.8736C134.611 18.8457 134.517 19.8149 134.335 20.7684C134.189 21.7066 133.941 22.6249 133.597 23.506C133.435 23.9442 133.246 24.3715 133.032 24.785C132.793 25.1665 132.641 25.5928 132.381 25.9518C131.893 26.7711 131.25 27.4809 130.492 28.0387C129.796 28.5006 129.07 28.913 128.32 29.2728C127.669 29.6319 126.996 29.9908 126.301 30.3051C125.954 30.4739 125.599 30.6238 125.237 30.7538L124.195 31.0904C122.986 31.4549 121.752 31.725 120.503 31.8982C119.546 32.0419 118.582 32.1319 117.616 32.1676C117.008 32.2021 116.399 32.2021 115.792 32.1676C115.314 32.4368 115.075 32.3695 115.075 32.2572Z" fill="#014E72"/>
<path d="M62.3089 34.5918C62.3089 34.5918 62.0701 34.7488 61.7009 34.7265L60.1592 34.5693C59.4304 34.4967 58.6986 34.4591 57.9662 34.4571C57.0325 34.4571 55.9903 34.4572 54.8177 34.5918H53.0156C52.3326 34.6337 51.647 34.5885 50.9745 34.4571C50.2642 34.2874 49.5782 34.0234 48.9334 33.6718C48.2933 33.3382 47.6702 32.9713 47.0662 32.5723C46.7397 32.3548 46.4278 32.1149 46.1324 31.8542C45.8416 31.5949 45.566 31.3175 45.3075 31.024C44.7646 30.463 44.2868 29.8123 43.7656 29.184C43.2728 28.5305 42.8162 27.8487 42.3977 27.142C41.9885 26.4196 41.6258 25.67 41.3121 24.898C41.0048 24.1752 40.7649 23.424 40.5955 22.6542C40.4952 22.2775 40.4155 21.8955 40.3568 21.5097C40.3568 21.1508 40.2481 20.7693 40.2265 20.3878C40.1937 19.992 40.1937 19.5942 40.2265 19.1985C40.2586 18.7841 40.3463 18.3763 40.487 17.9868C40.772 17.1761 41.3471 16.5094 42.0938 16.1243C42.7908 15.866 43.5246 15.7295 44.2651 15.7205H45.3075C45.673 15.753 46.0359 15.8131 46.3931 15.8998C47.0878 16.0345 47.6524 16.2813 48.1953 16.3936L49.954 16.8424C50.537 16.9996 51.11 17.1945 51.6694 17.4258L53.1459 18.0541C54.0144 18.4355 54.8613 18.7272 55.6646 19.0415L58.8347 20.4102L60.4633 21.1059C61.0061 21.3302 61.5489 21.5995 62.005 21.824L63.3077 22.4746L63.8941 22.7663L64.1762 22.901L64.4585 23.058C65.1533 23.4844 65.6093 23.7986 65.935 24.0454C66.2609 24.2922 66.4344 24.4269 66.4128 24.5165C66.391 24.6063 66.1305 24.5165 65.7179 24.5165C65.3054 24.5165 64.6974 24.1352 64.0459 23.8658H63.8071H63.5466L62.9169 23.6414L61.5707 23.0805C61.0713 22.901 60.6587 22.7214 60.0725 22.4746C59.4863 22.2278 58.9651 22.0482 58.3571 21.7565L55.2738 20.3878C54.579 20.0961 53.6887 19.7819 52.7117 19.3332L51.2786 18.6823C50.7898 18.4726 50.2896 18.2927 49.7803 18.1438C49.2375 17.9643 48.6513 17.8521 48.0433 17.6502C47.4353 17.4483 46.7622 17.2462 46.176 17.1117C45.8983 17.0304 45.6152 16.9704 45.3291 16.9321H44.3736C43.745 16.9059 43.116 16.9739 42.5063 17.1341C41.9451 17.3804 41.495 17.8375 41.2469 18.4132C41.1246 18.7156 41.0371 19.0319 40.9864 19.3555C40.9535 19.6988 40.9535 20.0446 40.9864 20.3878C40.9648 20.7464 40.9648 21.1062 40.9864 21.4648C41.023 21.8271 41.0811 22.1869 41.1601 22.5419C41.314 23.2543 41.5245 23.9523 41.7897 24.6288C42.0675 25.4018 42.4014 26.1519 42.7886 26.8726C43.5667 28.245 44.5077 29.5113 45.5896 30.6425C45.8501 30.9117 46.089 31.2036 46.3713 31.4504C46.6536 31.6972 46.9141 31.8991 47.2182 32.101C47.8236 32.497 48.4548 32.8495 49.1073 33.1557C49.6924 33.4651 50.3123 33.6987 50.9529 33.8514C51.5591 33.919 52.1705 33.919 52.7767 33.8514H53.7321H54.6224C55.7732 33.8514 56.7938 33.6942 57.836 33.6942C58.6803 33.6902 59.5235 33.7653 60.3548 33.9186C60.8821 34.0134 61.3986 34.1638 61.8964 34.3674C62.3089 34.3674 62.4174 34.4797 62.3089 34.5918Z" fill="#014E72"/>
<path d="M44.2192 23.439C44.2192 23.439 44.219 23.6411 43.9369 23.6859C43.7869 23.6943 43.6375 23.6612 43.5039 23.5902C43.3704 23.5192 43.2575 23.4129 43.1768 23.2819C42.921 22.9358 42.7972 22.5045 42.8295 22.0702C42.8443 21.7787 42.9222 21.4944 43.0574 21.238C43.1928 20.9817 43.382 20.7599 43.6112 20.5892L44.0019 20.3873L44.4145 20.2526C44.722 20.1827 45.0406 20.1827 45.3482 20.2526C45.656 20.3309 45.9544 20.4439 46.2385 20.5892C46.5193 20.6868 46.8113 20.7472 47.107 20.7688L47.5629 20.9258L48.0189 21.1054L48.9092 21.4643L49.8211 21.8009L50.7765 22.16L51.6232 22.4741L52.0359 22.6313H52.4701L52.9045 22.7658L53.3386 22.9004L54.1637 23.1922L54.9672 23.4839L55.3581 23.6185L55.7706 23.7981C55.9782 23.9544 56.2045 24.0828 56.4437 24.1796C56.6789 24.26 56.9181 24.3274 57.1603 24.3815L57.855 24.6283L58.4414 24.92C58.7913 25.07 59.155 25.1828 59.527 25.2566L60.8732 25.7278L61.5681 25.9523C61.793 26.0204 62.011 26.1105 62.2195 26.2215L62.7623 26.5132L63.0012 26.6478H63.1314H63.2399C63.4396 26.8309 63.6214 27.0338 63.7827 27.2538C63.8913 27.4108 63.9349 27.5229 63.9131 27.6127C63.8913 27.7025 63.7611 27.6127 63.5874 27.6127C63.4137 27.6127 63.1747 27.4557 62.8926 27.3659H62.7841L62.3062 27.5006L61.72 27.321L61.0904 27.1191C60.837 27.0724 60.5896 26.9971 60.3521 26.8946L59.0276 26.4234C58.6583 26.3109 58.2959 26.1761 57.942 26.0195L57.3556 25.7053C57.153 25.5987 56.9423 25.5087 56.726 25.4361C56.4829 25.3674 56.2438 25.285 56.0095 25.1893C55.7501 25.0879 55.5081 24.9439 55.2929 24.763L54.9672 24.561L54.5764 24.4264L53.7946 24.0898L52.9695 23.7756L52.5787 23.5962L52.1444 23.4615L51.732 23.3045L51.2975 23.1249L50.4724 22.7434L49.5389 22.362L48.6269 22.0254L47.715 21.6664L47.2806 21.4868H46.8465C46.5445 21.4358 46.2469 21.3609 45.9562 21.2624C45.7197 21.1464 45.4724 21.0563 45.2179 20.9932C44.997 20.9352 44.7657 20.9352 44.5447 20.9932H44.2408C44.1535 21.0319 44.073 21.085 44.0019 21.1503C43.7883 21.3458 43.6561 21.6192 43.6328 21.9132C43.6152 22.1507 43.6523 22.389 43.7414 22.6088C43.7699 22.7461 43.8382 22.8713 43.9369 22.9679C44.0242 23.0081 44.0976 23.0747 44.1479 23.1586C44.1982 23.2425 44.2231 23.3403 44.2192 23.439Z" fill="#014E72"/>
<path d="M129.966 18.6373C129.915 18.6146 129.869 18.5807 129.831 18.5382C129.794 18.4956 129.766 18.4452 129.748 18.3905C129.748 18.3905 129.64 18.1437 129.553 17.9866C129.4 17.8011 129.206 17.655 128.988 17.5603C128.707 17.4144 128.386 17.3672 128.076 17.4256H127.816L127.555 17.5826L127.078 18.0315C126.882 18.2109 126.644 18.3456 126.47 18.5026C126.289 18.7044 126.135 18.931 126.014 19.1758C125.95 19.3151 125.877 19.45 125.796 19.5798L125.536 19.9388L124.993 20.6568L124.472 21.4423L123.908 22.1827L123.386 22.8783L123.126 23.1925L122.865 23.5515L122.626 23.888L122.344 24.2246L121.801 24.8529L121.28 25.4588L120.998 25.7505C120.905 25.8587 120.795 25.9498 120.672 26.0199C120.463 26.1307 120.266 26.2662 120.086 26.4237L119.587 26.9399C119.434 27.1199 119.258 27.2785 119.065 27.411L118.544 27.7477C118.24 27.972 118.002 28.2188 117.741 28.4433C117.481 28.6677 116.851 29.1164 116.655 29.2511L116.069 29.6549C115.89 29.7899 115.692 29.8959 115.483 29.9692L114.962 30.1935H114.701H114.592H114.419C114.166 30.2208 113.911 30.2208 113.659 30.1935C113.485 30.1935 113.377 30.1935 113.355 30.0364C113.333 29.8794 113.355 29.8345 113.507 29.7447C113.69 29.6172 113.887 29.5118 114.093 29.4305L114.289 29.296L114.766 28.9818L115.244 28.6452L115.809 28.2188C116.004 28.0841 116.373 27.8599 116.851 27.5007C117.328 27.1418 117.329 27.0744 117.676 26.8501L118.197 26.5584C118.367 26.4374 118.526 26.3024 118.675 26.1544L119.174 25.6833C119.373 25.5196 119.592 25.3838 119.825 25.2793L120.108 25.0774L120.368 24.8306L120.933 24.2695L121.497 23.6861L121.758 23.3944L122.018 23.0802L122.279 22.7436L122.561 22.4295L123.126 21.8012L123.712 21.0832L124.233 20.3428L124.755 19.6022L124.993 19.2432C125.077 19.1237 125.15 18.9959 125.21 18.8617C125.308 18.5752 125.455 18.309 125.644 18.0764C125.862 17.852 126.101 17.6724 126.274 17.4928C126.448 17.3135 126.643 17.089 126.86 16.9094L127.23 16.6626L127.62 16.5056C128.134 16.3466 128.688 16.403 129.162 16.6626C129.538 16.838 129.839 17.1492 130.009 17.5377C130.069 17.6674 130.1 17.8092 130.1 17.9529C130.1 18.0966 130.069 18.2384 130.009 18.3681C130.161 18.5251 130.052 18.6598 129.966 18.6373Z" fill="#014E72"/>
<path d="M77.3568 43.0062C77.4891 43.2418 77.5672 43.5059 77.5848 43.7777C77.6024 44.0497 77.5591 44.322 77.4583 44.5739C77.3575 44.8257 77.2018 45.0501 77.0034 45.2295C76.8052 45.4091 76.5693 45.5391 76.3146 45.6092C75.786 45.6806 75.2504 45.5484 74.8099 45.238C74.3695 44.9278 74.055 44.4607 73.9261 43.9262C73.8386 43.378 73.9095 42.8155 74.1295 42.3085C74.3497 41.8017 74.7094 41.3732 75.1638 41.0763C75.4803 40.855 75.8478 40.7239 76.229 40.6963C76.6103 40.6688 76.9918 40.7457 77.3351 40.9193C77.4957 41.0294 77.6303 41.1754 77.7288 41.3466C77.8272 41.5179 77.8871 41.7098 77.9037 41.9082C77.9205 42.1066 77.8935 42.3063 77.8251 42.4926C77.7569 42.6788 77.6487 42.8467 77.5088 42.9837" fill="#014E72"/>
<path d="M104.918 43.0062C105.05 43.2418 105.128 43.5059 105.146 43.7777C105.163 44.0497 105.12 44.322 105.019 44.5739C104.918 44.8257 104.763 45.0501 104.564 45.2295C104.366 45.4091 104.13 45.5391 103.875 45.6092C103.347 45.6806 102.811 45.5484 102.371 45.238C101.93 44.9278 101.616 44.4607 101.487 43.9262C101.399 43.378 101.47 42.8155 101.69 42.3085C101.91 41.8017 102.27 41.3732 102.724 41.0763C103.041 40.855 103.409 40.7239 103.79 40.6963C104.171 40.6688 104.553 40.7457 104.896 40.9193C105.057 41.0294 105.191 41.1754 105.289 41.3466C105.388 41.5179 105.448 41.7098 105.464 41.9082C105.481 42.1066 105.454 42.3063 105.386 42.4926C105.318 42.6788 105.209 42.8467 105.07 42.9837" fill="#014E72"/>
<path d="M105.134 42.9838C105.116 42.9412 105.107 42.8953 105.107 42.8491C105.107 42.8027 105.116 42.7568 105.134 42.7144C105.124 42.6175 105.124 42.5197 105.134 42.4227C105.147 42.2884 105.147 42.1531 105.134 42.0189C105.111 41.8257 105.044 41.6409 104.938 41.4802H104.808H104.482C104.37 41.3876 104.246 41.312 104.113 41.2559C103.973 41.2027 103.819 41.2027 103.679 41.2559H103.462H103.245C103.089 41.3157 102.943 41.3989 102.81 41.5027C102.684 41.6187 102.567 41.7464 102.463 41.8842C102.357 42.0172 102.262 42.1599 102.181 42.3106C102.101 42.4499 102.042 42.6013 102.007 42.7593V42.9838C101.995 43.058 101.995 43.1338 102.007 43.2081V43.6344C101.995 43.7613 101.995 43.8891 102.007 44.0159C102.054 44.1384 102.12 44.252 102.202 44.3525L102.311 44.4872C102.355 44.5416 102.391 44.602 102.42 44.6667C102.452 44.7894 102.521 44.899 102.615 44.9808C102.723 45.0031 102.833 45.0031 102.94 44.9808C103.041 44.9576 103.144 44.9576 103.245 44.9808H103.505C103.582 44.9815 103.658 44.9659 103.729 44.9351C103.8 44.9042 103.865 44.8586 103.918 44.8012C104.145 44.633 104.319 44.3987 104.417 44.128C104.417 44.128 104.417 43.9486 104.417 43.8812V43.6569C104.417 43.6569 104.417 43.6569 104.417 43.5446C104.503 43.4021 104.575 43.2519 104.634 43.0959C104.661 42.994 104.714 42.9012 104.786 42.8266C104.786 42.8266 104.938 42.8266 105.047 42.8266C105.162 42.9738 105.23 43.154 105.242 43.3427V43.4997C105.242 43.4997 105.242 43.6344 105.242 43.7018C105.264 43.8505 105.264 44.0017 105.242 44.1506C105.217 44.3173 105.18 44.4823 105.134 44.6442C105.092 44.8459 105.01 45.0369 104.895 45.2052C104.683 45.5124 104.399 45.7594 104.07 45.9233C103.803 46.0948 103.493 46.1808 103.18 46.1701C103.008 46.1492 102.84 46.104 102.68 46.0354L102.202 45.8784C102.03 45.8101 101.863 45.7276 101.703 45.6316C101.548 45.5003 101.429 45.3304 101.356 45.1378L101.225 44.891L101.073 44.6667C100.972 44.4905 100.891 44.3021 100.834 44.1057C100.799 43.9053 100.799 43.7002 100.834 43.4997C100.823 43.403 100.823 43.305 100.834 43.2081C100.823 43.1038 100.823 42.9983 100.834 42.894C100.834 42.894 100.834 42.6921 100.834 42.6023C100.857 42.5002 100.894 42.402 100.943 42.3106C101.012 42.1225 101.1 41.942 101.204 41.7719C101.334 41.57 101.464 41.413 101.594 41.2334L102.05 40.7847C102.214 40.6395 102.397 40.5187 102.593 40.4256H102.876L103.136 40.2911C103.329 40.1818 103.546 40.1275 103.766 40.1339C103.97 40.1721 104.167 40.24 104.352 40.3359L104.895 40.493L105.177 40.6725C105.255 40.7415 105.328 40.8165 105.394 40.8968C105.6 41.1862 105.727 41.5269 105.763 41.8842C105.776 42.1746 105.708 42.4626 105.568 42.7144C105.518 42.7994 105.452 42.8728 105.373 42.9307C105.295 42.9886 105.206 43.0295 105.112 43.051C105.116 43.0275 105.123 43.0048 105.134 42.9838Z" fill="#014E72"/>
<path d="M110.073 57.2777C110.073 57.2777 109.835 57.2777 109.617 57.2777C109.296 57.0851 108.984 56.8753 108.684 56.6494C108.215 56.3225 107.73 56.0228 107.229 55.7518C106.587 55.3666 105.92 55.029 105.231 54.742L104.667 54.5175L104.059 54.3156C103.625 54.1809 103.19 54.0913 102.691 53.9118C102.192 53.7322 101.757 53.5303 101.301 53.3956C100.827 53.2471 100.34 53.1493 99.8464 53.1039H99.043L98.2395 52.9693L96.5895 52.7225L94.9175 52.5429L93.2021 52.3635L91.6605 52.2288H90.9005H90.1406H89.3806H88.6205C88.1213 52.2288 87.6219 52.2288 87.1441 52.3635C86.6664 52.4982 86.167 52.3635 85.6893 52.5654H84.9946H84.2345C83.8052 52.5644 83.3766 52.602 82.9535 52.6776L81.7158 52.9918C81.312 53.1306 80.8981 53.2358 80.4782 53.3059L79.3708 53.5078C78.7536 53.6618 78.1448 53.849 77.5468 54.0688L75.2018 54.8092L74.0075 55.2356L72.8567 55.5947L71.8362 55.8639H71.402H71.1631H70.946C70.5196 55.8991 70.0913 55.8991 69.6648 55.8639C69.3609 55.8639 69.1872 55.8639 69.1654 55.8639C69.1438 55.8639 69.274 55.662 69.5563 55.5049C69.9361 55.3264 70.3281 55.1764 70.7288 55.0562H70.9026H71.0979L71.5322 54.8767L72.5094 54.4726L73.595 54.0688L74.8544 53.5976L77.1777 52.902C77.7206 52.745 78.3502 52.5205 79.1319 52.3635L80.2609 52.1839C80.6496 52.1295 81.0342 52.0471 81.4117 51.9371L82.693 51.6454C83.1697 51.6034 83.6491 51.6034 84.1259 51.6454H84.7773H85.4938L86.9703 51.4659C87.4697 51.4659 87.9692 51.4659 88.4904 51.4659H90.8137H91.6171C92.1599 51.4659 92.6593 51.6005 93.1805 51.6678L94.8741 51.8923L96.5677 52.0718L98.2395 52.2961L99.043 52.4307H99.8248C100.374 52.4596 100.919 52.5422 101.453 52.6776C101.974 52.8346 102.452 53.059 102.886 53.1713C103.321 53.2835 103.777 53.3956 104.232 53.5078L104.906 53.7099L105.535 53.9341C106.285 54.2253 107.011 54.578 107.707 54.9888C108.24 55.294 108.742 55.655 109.205 56.066C109.508 56.3205 109.778 56.6147 110.008 56.9411C110.073 57.0532 110.073 57.2103 110.073 57.2777Z" fill="#014E72"/>
<path d="M78.8106 66.0064C78.8507 65.9847 78.8954 65.9734 78.9407 65.9734C78.9861 65.9734 79.0308 65.9847 79.0711 66.0064C79.1637 66.0338 79.2466 66.0883 79.3098 66.1634L79.5921 66.4102C79.7154 66.5276 79.8543 66.6258 80.0048 66.7019H80.1349H80.2653H80.5476C80.6419 66.7675 80.7442 66.8204 80.8516 66.859C80.8516 66.859 81.047 66.859 81.1122 66.859H81.2423H81.3727C81.4624 66.7857 81.5362 66.6941 81.5898 66.5898C81.6453 66.4853 81.6821 66.3712 81.6984 66.2532C81.71 66.1563 81.71 66.0583 81.6984 65.9615C81.6763 65.8754 81.6311 65.7976 81.568 65.7371H81.4378H81.2857H81.1338H80.7865H80.4172H80.2437H80.0699C79.981 65.657 79.8778 65.5961 79.7659 65.5575H79.4402H79.1145H78.8322C78.6736 65.5356 78.5131 65.5356 78.3545 65.5575H77.7466H77.4425C77.3425 65.58 77.2387 65.58 77.1386 65.5575H76.8781H76.7477C76.6079 65.4752 76.4888 65.3599 76.4002 65.2209C76.4002 65.2209 76.2483 65.0639 76.2483 64.9741C76.2393 64.9295 76.2451 64.8832 76.2647 64.8424C76.2844 64.8017 76.317 64.769 76.3569 64.7498C76.464 64.7231 76.5756 64.7231 76.6825 64.7498H76.7911H76.8997H77.182H77.4859C77.6014 64.7371 77.7178 64.7371 77.8333 64.7498H78.4849C78.6651 64.7263 78.8473 64.7263 79.0277 64.7498H79.3316C79.4319 64.7708 79.5353 64.7708 79.6357 64.7498C79.7584 64.739 79.8818 64.739 80.0048 64.7498C80.1314 64.7947 80.2491 64.8633 80.3521 64.9517C80.3521 64.9517 80.4608 64.9517 80.526 64.9517H80.6995H81.0904L81.4812 65.0864H81.6984H81.9155L82.1326 65.2434L82.3281 65.4454C82.442 65.6064 82.5231 65.7896 82.5669 65.9839C82.6099 66.1835 82.6099 66.3902 82.5669 66.5898C82.5364 66.7747 82.4854 66.9554 82.4149 67.1283C82.3254 67.285 82.2159 67.4284 82.0892 67.5547L81.8937 67.7342L81.6984 67.9136C81.5588 68.0576 81.374 68.1453 81.1773 68.1606C81.0184 68.1758 80.8584 68.1758 80.6995 68.1606H80.0482H79.8526C79.6297 68.062 79.4242 67.9255 79.2447 67.7566C79.1158 67.6239 79.0061 67.4729 78.919 67.3079C78.8886 67.1825 78.8886 67.0515 78.919 66.9264C78.801 66.9412 78.682 66.907 78.5884 66.8313C78.4947 66.7555 78.4341 66.6444 78.4197 66.5224C78.4053 66.4004 78.4384 66.2776 78.5117 66.1808C78.5849 66.084 78.6925 66.0212 78.8106 66.0064Z" fill="#014E72"/>
<path d="M86.867 82.7014C86.867 82.7014 86.6714 82.8132 86.4761 82.7014C86.2206 82.5912 85.9797 82.4477 85.7596 82.2742C85.3993 82.0255 85.0582 81.7485 84.7389 81.4448C84.3016 81.0593 83.8949 80.6404 83.523 80.1882L83.2408 79.7844L82.9368 79.3572C82.7287 79.0418 82.554 78.703 82.4157 78.3476C82.2976 77.9487 82.2534 77.5299 82.2854 77.1144C82.2646 76.7105 82.2646 76.305 82.2854 75.9028C82.2994 75.6792 82.3433 75.4606 82.4157 75.252C82.4157 75.0501 82.5895 74.8482 82.6762 74.6463C82.8847 74.2424 83.1478 73.872 83.458 73.5465C83.7795 73.2028 84.1734 72.9425 84.6088 72.7823C85.0775 72.6488 85.5731 72.6488 86.0418 72.7823C86.4516 72.884 86.841 73.0593 87.1926 73.2996L87.6921 73.6584L88.1479 74.0388L88.5823 74.421L88.9948 74.8248L89.8199 75.5657L90.645 76.2383L91.0575 76.552C91.2051 76.6671 91.343 76.7956 91.4701 76.9341C91.6847 77.1694 91.917 77.388 92.1649 77.5849C92.4256 77.7652 92.7077 77.8987 92.9684 78.0555C93.2476 78.1907 93.5164 78.3492 93.7717 78.5278L94.4449 78.9984C94.854 79.217 95.2745 79.4122 95.7042 79.5825L97.3545 80.255L98.2013 80.547C98.4817 80.6271 98.7572 80.7239 99.0265 80.839L99.7212 81.1311L100.025 81.2646H100.177H100.329C100.608 81.4331 100.869 81.6284 101.111 81.8486C101.284 81.9838 101.371 82.0956 101.371 82.1857C101.371 82.1857 101.219 82.3192 100.981 82.1857C100.671 82.149 100.365 82.0823 100.069 81.9838H99.7864H99.4389L98.679 81.7819L97.8539 81.5566C97.5827 81.5049 97.3145 81.4381 97.0506 81.3547C96.7683 81.2195 96.1819 80.9959 95.4002 80.6138C94.929 80.4419 94.4775 80.2166 94.054 79.9412L93.3593 79.4473C93.1247 79.2654 92.8781 79.1002 92.6209 78.9533C92.3604 78.7965 92.0781 78.6396 91.7958 78.4377C91.5153 78.2057 91.254 77.9504 91.0141 77.6751C90.9055 77.5399 90.7754 77.4281 90.6668 77.3163L90.2542 76.9792C89.9719 76.7539 89.7114 76.5086 89.4291 76.2383C89.1468 75.9696 88.8863 75.7226 88.6257 75.4539L88.2349 75.0501L87.7138 74.6229L87.3012 74.2408L86.8886 73.882C86.6129 73.6734 86.3045 73.5132 85.9767 73.4114C85.6287 73.3113 85.2608 73.3113 84.9127 73.4114C84.5634 73.5165 84.2482 73.7184 84.0008 73.9954C83.7348 74.2574 83.508 74.5612 83.3276 74.8916C83.3276 75.0718 83.1757 75.2287 83.1105 75.4089C83.079 75.5858 83.079 75.7693 83.1105 75.9462C83.0779 76.305 83.0779 76.6655 83.1105 77.0242C83.0656 77.3597 83.0656 77.6984 83.1105 78.0339C83.2274 78.3276 83.3886 78.5996 83.5881 78.8415L83.8922 79.2237L84.1745 79.5825C84.5289 79.9996 84.9059 80.3968 85.3035 80.7706L86.2372 81.6467C86.4295 81.847 86.604 82.0639 86.7584 82.2975C86.8887 82.4994 86.9321 82.6346 86.867 82.7014Z" fill="#014E72"/>
<path d="M78.7506 79.7173C78.7506 79.7173 78.9026 79.5588 79.0763 79.5821C79.3099 79.6105 79.5372 79.6789 79.7495 79.784L80.7265 80.1662L82.0293 80.6585H82.3985L82.7894 80.772C83.0691 80.8354 83.3446 80.9188 83.6145 81.0173C83.9184 81.0173 84.1789 81.2876 84.4612 81.3994C84.7442 81.5246 85.0448 81.5997 85.3515 81.6247H85.8509L86.3286 81.7582L87.3274 81.9601L88.3478 82.0953H89.3902H90.3455H93.1465H94.0368H94.8837C95.1439 82.1153 95.4051 82.1153 95.6653 82.0953C95.929 82.0719 96.1903 82.0269 96.447 81.9601C96.6962 81.8934 96.9504 81.8483 97.2069 81.8266H97.9019C98.2927 81.8266 98.6836 81.6247 99.0309 81.5346C99.7258 81.3777 100.225 81.2209 100.486 81.1524L101.202 80.9288C101.436 80.8437 101.675 80.7753 101.919 80.7269H102.548H102.831H103.113C103.391 80.7286 103.668 80.767 103.938 80.8387C104.134 80.8387 104.264 80.8387 104.285 80.9956C104.307 81.1524 104.286 81.1975 104.068 81.2876C103.83 81.4027 103.583 81.5012 103.33 81.5796H103.222H103.113L102.831 81.7131L102.223 81.9384L101.55 82.1854C101.292 82.3039 101.023 82.3957 100.746 82.4541C100.486 82.4541 99.9863 82.6794 99.2914 82.8129C98.8836 82.9197 98.4705 83.0014 98.0538 83.0598H97.3373C97.0988 83.0381 96.8591 83.0381 96.6207 83.0598C96.35 83.1299 96.074 83.175 95.7956 83.195C95.4998 83.2284 95.2012 83.2284 94.9053 83.195H90.7798H90.2804H89.3251L88.2611 83.0381L87.2188 82.8813L86.1984 82.701H85.699H85.2212C84.8832 82.6927 84.5475 82.6393 84.2223 82.5442C83.9399 82.4073 83.65 82.2872 83.3538 82.1854C83.0933 82.1854 82.811 82.0502 82.5287 81.9835H82.0944L81.7036 81.87C81.2042 81.7131 80.7483 81.5346 80.3574 81.3777C80.0059 81.2459 79.6707 81.074 79.3586 80.8604C79.1444 80.7503 78.9526 80.5984 78.794 80.4115C78.7288 79.9192 78.7072 79.8057 78.7506 79.7173Z" fill="#014E72"/>
<path d="M84.8236 114.543C84.9322 114.543 84.9972 114.878 84.9972 115.484C84.9972 116.09 84.9974 116.988 84.8888 118.066C84.7802 119.142 84.7151 120.467 84.5847 121.992C84.4544 123.517 84.3244 125.268 84.1723 127.154L84.0421 128.612L83.9335 130.071C83.9335 131.08 83.8032 132.157 83.6946 133.325C83.586 134.491 83.3905 135.568 83.2604 136.712C83.13 137.857 83.0648 138.957 82.9998 140.123L82.8693 141.986L82.6956 143.848C82.6782 144.2 82.5896 144.544 82.4352 144.858C82.2628 145.21 81.9682 145.483 81.6101 145.62C80.9831 145.777 80.3435 145.876 79.6994 145.912C78.4409 145.981 77.1796 145.981 75.921 145.912C75.2585 145.897 74.5981 145.829 73.9453 145.71C73.6005 145.56 73.2994 145.32 73.0711 145.013C72.8427 144.706 72.6953 144.344 72.6425 143.96L71.7521 140.527L71.2962 138.798C71.1441 138.261 70.9705 137.722 70.7969 137.161L70.2975 135.477L69.7763 133.772C69.4289 132.674 69.1032 131.529 68.7559 130.496L67.7136 127.311L67.1924 125.762L66.6712 124.123C66.3456 123.092 66.0634 122.127 65.7593 121.296L64.7389 118.581C64.4132 117.662 64.0873 116.697 63.8486 115.776C63.6097 114.857 63.3926 114.026 63.1972 113.263C62.8282 111.783 62.4373 110.346 62.1332 108.999C61.5688 106.353 61.2647 104.512 61.1562 103.412C61.0476 102.312 60.8739 101.505 60.8087 100.519C60.7076 99.5857 60.6567 98.6496 60.6567 97.7134C60.6567 96.8607 60.6567 96.053 60.6567 95.312V94.234V93.6967V93.1794C60.7884 92.2332 60.9771 91.297 61.2213 90.3758C61.3733 89.7701 61.4817 89.433 61.5685 89.433C61.6554 89.433 61.699 89.8368 61.6772 90.5327C61.6556 91.2286 61.5036 92.2599 61.5036 93.3829V95.3337V97.5782C61.5036 98.4526 61.612 99.2386 61.6988 100.158C61.7856 101.079 61.9379 102.066 62.0682 103.144C62.1984 104.22 62.4371 105.97 62.9799 108.507C63.2405 109.718 63.6095 111.177 64.0222 112.994C64.2175 113.824 64.4348 114.676 64.6303 115.484C64.8257 116.293 65.108 117.101 65.3903 117.997C65.6726 118.895 66.0416 119.793 66.3891 120.781C66.7364 121.767 67.0839 123.025 67.3662 123.876L67.7786 125.291C67.9524 125.784 68.1261 126.301 68.2781 126.817L69.2767 130.026L70.2541 133.301L70.7318 134.962L71.231 136.622L71.7088 138.351L72.1431 140.078L72.9898 143.534C73.1418 144.185 73.2939 144.767 73.7281 144.969C74.2819 145.155 74.862 145.238 75.4434 145.216C76.6798 145.295 77.92 145.295 79.1566 145.216C79.7539 145.181 80.3487 145.106 80.937 144.993C81.1725 144.944 81.3845 144.813 81.5353 144.621C81.6863 144.427 81.7664 144.185 81.7619 143.938L81.9139 142.097C81.9139 141.537 81.9141 140.953 82.0226 140.325C82.0226 139.135 82.0225 137.902 82.2614 136.646C82.5003 135.389 82.5438 134.244 82.6524 133.28C82.7609 132.313 82.7827 131.237 82.8261 130.182V128.612L82.9347 127.13C83.0866 125.201 83.2386 123.451 83.3471 121.902C83.4557 120.353 83.6078 119.03 83.7598 117.864C83.9117 116.697 84.0421 115.911 84.1506 115.351C84.2592 114.79 84.7151 114.519 84.8236 114.543Z" fill="#014E72"/>
<path d="M116.197 91.4303C116.197 91.4303 116.436 91.6773 116.631 92.238C116.922 93.0206 117.133 93.8333 117.261 94.661C117.473 95.9293 117.59 97.2109 117.609 98.4975C117.656 100.183 117.591 101.87 117.413 103.547L117.239 104.939C117.239 105.386 117.239 105.858 117.066 106.352C116.914 107.317 116.805 108.372 116.545 109.471C116.284 110.571 115.98 111.714 115.654 112.657C115.329 113.6 115.112 114.721 114.807 115.844C114.634 116.427 114.482 116.987 114.33 117.571C114.178 118.156 113.939 118.716 113.765 119.299L112.571 122.755L111.355 126.256C110.943 127.446 110.508 128.5 110.117 129.8C109.727 131.102 109.575 132.045 109.271 133.123L108.815 134.783L108.294 136.375C108.12 136.936 107.924 137.475 107.729 138.014C107.534 138.553 107.251 139.09 107.012 139.584C106.528 140.607 105.969 141.59 105.341 142.524C104.71 143.464 103.982 144.328 103.169 145.104C102.704 145.512 102.142 145.784 101.541 145.89C100.971 145.965 100.395 145.965 99.8253 145.89C98.7831 145.89 97.8494 145.755 97.0243 145.777C96.5683 145.777 96.1558 145.777 95.6346 145.777C95.3277 145.765 95.0287 145.673 94.7661 145.508C94.4798 145.315 94.2714 145.019 94.1799 144.679C94.0715 144.17 94.0204 143.651 94.0278 143.13V141.738C94.0278 140.841 94.0278 139.988 94.0278 139.225C94.0278 137.745 94.0278 136.33 94.0278 134.985C94.0278 132.382 94.0278 130.496 94.0278 129.555C94.0278 128.612 94.0278 127.691 94.0278 126.771C94.0278 125.852 94.028 124.887 94.1365 124.08L94.3101 121.835L94.4187 120.802V120.308V119.793C94.5924 118.559 94.8095 117.707 94.9399 117.101C95.07 116.495 95.1786 116.18 95.2655 116.18C95.3523 116.18 95.4175 116.562 95.3957 117.234C95.3741 117.909 95.3959 118.918 95.2439 120.018V121.88C95.2439 122.619 95.2439 123.384 95.2439 124.123C95.2439 124.864 95.2439 125.695 95.2439 126.636V129.555C95.2439 130.496 95.2439 132.337 95.2439 134.85C95.2439 136.061 95.2439 137.52 95.2439 139.337C95.2439 140.168 95.2439 141.021 95.2439 141.829C95.2001 142.65 95.2001 143.474 95.2439 144.297C95.2439 144.655 95.2438 144.7 95.6346 144.767C96.0831 144.794 96.5325 144.794 96.9809 144.767C98.0448 144.767 99.1522 144.767 99.9991 144.924C100.432 144.969 100.869 144.969 101.302 144.924C101.744 144.884 102.166 144.712 102.518 144.432C103.277 143.778 103.949 143.023 104.515 142.187C105.148 141.318 105.707 140.395 106.187 139.427C106.426 138.957 106.665 138.463 106.882 137.969C107.099 137.475 107.295 136.959 107.468 136.42L108.033 134.805C108.207 134.266 108.359 133.728 108.511 133.189C108.836 132.09 109.053 130.945 109.423 129.869C109.792 128.791 110.248 127.467 110.682 126.301L111.92 122.778C112.332 121.61 112.701 120.533 113.092 119.322L113.635 117.616C113.809 117.077 113.939 116.538 114.069 115.978C114.373 114.878 114.612 113.735 114.938 112.545C115.264 111.355 115.546 110.301 115.785 109.426C116.023 108.55 116.089 107.474 116.241 106.486C116.241 105.994 116.371 105.476 116.414 104.982L116.566 103.569C116.727 101.915 116.785 100.25 116.74 98.5876C116.753 97.3294 116.703 96.0711 116.588 94.8179C116.588 93.7415 116.284 92.9772 116.241 92.4165C116.197 91.8558 116.089 91.452 116.197 91.4303Z" fill="#014E72"/>
<path d="M79.2821 139.967C79.3104 140.047 79.3104 140.134 79.2821 140.214C79.2552 140.228 79.2255 140.234 79.1954 140.234C79.1652 140.234 79.1355 140.228 79.1084 140.214H78.8261H78.2617H78.0446C78.0446 140.214 77.8708 140.079 77.8057 140.034C77.7405 139.989 77.6537 140.034 77.5668 140.034H77.4366H77.3062C77.2198 140.022 77.1322 140.022 77.0457 140.034H76.5029H76.264H76.1337H76.0035H75.8731H75.6344H75.4173H75.1784C75.1784 140.034 75.0263 140.034 74.9613 140.034C74.8964 140.025 74.8306 140.025 74.7657 140.034C74.7354 140.051 74.702 140.059 74.6681 140.059C74.6341 140.059 74.6007 140.051 74.5704 140.034H74.3749C74.2663 140.034 74.1795 140.034 74.0926 140.146H73.7019H73.5064C73.5064 140.146 73.3762 140.146 73.311 140.146H73.1591L72.9202 139.81C72.9047 139.72 72.9047 139.63 72.9202 139.539C72.9031 139.506 72.894 139.468 72.894 139.428C72.894 139.389 72.9031 139.351 72.9202 139.316C72.9202 139.316 73.0505 139.316 73.1155 139.316H73.2675H73.4412C73.5122 139.294 73.5875 139.294 73.6585 139.316H74.0492C74.1491 139.291 74.2534 139.291 74.3533 139.316H74.5486C74.612 139.337 74.6807 139.337 74.7441 139.316H74.9395C75.0329 139.327 75.1182 139.376 75.1784 139.451H75.2869H76.3943H76.6331H77.1977C77.2841 139.439 77.3717 139.439 77.4582 139.451H77.5885H77.7189C77.7189 139.451 77.8924 139.337 77.9794 139.451C78.0584 139.464 78.1391 139.464 78.2181 139.451C78.2181 139.451 78.3702 139.451 78.4353 139.451H78.544H79.0216C79.1141 139.424 79.2115 139.424 79.3039 139.451C79.3788 139.499 79.4389 139.57 79.4777 139.653C79.4675 139.716 79.4449 139.777 79.4112 139.83C79.3776 139.885 79.3338 139.93 79.2821 139.967Z" fill="#014E72"/>
<path d="M103.754 139.494C103.779 139.583 103.779 139.676 103.754 139.765C103.683 139.788 103.607 139.788 103.537 139.765C103.414 139.776 103.29 139.776 103.168 139.765H102.69H102.56H102.429H102.125C102.017 139.765 101.908 139.765 101.8 139.63C101.691 139.494 101.604 139.63 101.496 139.63H101.322H101.148C101.033 139.618 100.916 139.618 100.801 139.63H100.453H99.4329H99.2591H99.1072H98.7815H98.3255C98.3017 139.641 98.2758 139.648 98.2495 139.648C98.2232 139.648 98.1972 139.641 98.1735 139.63C98.0807 139.606 97.984 139.606 97.8912 139.63C97.8047 139.619 97.7172 139.619 97.6307 139.63C97.5376 139.651 97.4415 139.651 97.3484 139.63H97.1095C96.9727 139.609 96.8338 139.609 96.697 139.63H96.1758H95.9153C95.8298 139.651 95.7403 139.651 95.6548 139.63H95.4377C95.2541 139.683 95.0636 139.706 94.8731 139.698C94.8731 139.584 94.8731 139.518 94.8731 139.427C94.869 139.387 94.8773 139.346 94.8966 139.309C94.9161 139.272 94.9457 139.244 94.9816 139.225C94.9816 139.225 95.1336 139.225 95.2423 139.225H95.4593C95.5377 139.247 95.6199 139.247 95.6982 139.225H95.9805H96.4799C96.6164 139.202 96.7559 139.202 96.8924 139.225H97.1313H97.3702H97.6307C97.7447 139.245 97.8506 139.3 97.9346 139.382H98.0649H100.236H100.584C100.699 139.371 100.816 139.371 100.931 139.382H101.105H101.257C101.363 139.352 101.476 139.352 101.582 139.382C101.691 139.392 101.8 139.392 101.908 139.382C101.994 139.401 102.083 139.401 102.169 139.382H102.321H102.451C102.61 139.362 102.77 139.362 102.929 139.382H103.298C103.393 139.417 103.475 139.479 103.537 139.563C103.598 139.513 103.676 139.488 103.754 139.494Z" fill="#014E72"/>
<path d="M91.9315 131.686C91.9569 131.774 91.9569 131.868 91.9315 131.955C91.8972 131.97 91.8602 131.978 91.823 131.978C91.7857 131.978 91.7488 131.97 91.7144 131.955C91.5991 131.97 91.4823 131.97 91.3669 131.955H90.9327H90.8024H90.6722C90.5785 131.968 90.4834 131.968 90.3899 131.955C90.2802 131.935 90.1765 131.888 90.0858 131.821C89.9868 131.789 89.881 131.789 89.7819 131.821H89.6298H89.1305H88.7831H88.4356H88.1317H87.9797H87.8276H87.6757H87.5237H87.2196H86.9157H86.7638C86.7397 131.831 86.7138 131.836 86.6878 131.836C86.6617 131.836 86.6358 131.831 86.6116 131.821C86.6116 131.821 86.4163 131.821 86.3295 131.821H86.0688C85.985 131.853 85.8924 131.853 85.8083 131.821H85.5694C85.4329 131.798 85.2934 131.798 85.1569 131.821H84.6141C84.5202 131.81 84.4256 131.81 84.3318 131.821C84.2465 131.845 84.1565 131.845 84.0712 131.821H83.8542H83.7455C83.6734 131.688 83.6221 131.544 83.5935 131.394C83.5583 131.301 83.5583 131.197 83.5935 131.102C83.6066 131.067 83.6269 131.034 83.6532 131.007C83.6793 130.98 83.7108 130.958 83.7455 130.945C83.7455 130.945 83.8758 130.945 83.9628 130.945H84.5272H84.7879H85.2437C85.3657 130.92 85.491 130.92 85.613 130.945H85.8299H86.0688H86.3295C86.4342 130.962 86.5323 131.009 86.6116 131.08H86.742H87.6323H87.7626H88.7397H89.087H89.4128H89.5864H89.7385C89.8319 131.004 89.9452 130.957 90.0642 130.945C90.1653 130.953 90.267 130.953 90.3681 130.945C90.4543 130.963 90.5426 130.963 90.6286 130.945H90.7806H90.9109H91.3887C91.5107 130.922 91.6357 130.922 91.7578 130.945C91.8586 130.98 91.9436 131.052 91.9967 131.147C92.0525 131.229 92.0767 131.331 92.0646 131.429C92.0525 131.529 92.0051 131.621 91.9315 131.686Z" fill="#014E72"/>
</svg>
