<svg width="24" height="25" viewBox="0 0 24 25" fill="none" xmlns="http://www.w3.org/2000/svg">
<g clip-path="url(#clip0_12_41)">
<mask id="mask0_12_41" style="mask-type:luminance" maskUnits="userSpaceOnUse" x="0" y="0" width="24" height="25">
<path d="M24 0.752441H0V24.7524H24V0.752441Z" fill="white"/>
</mask>
<g mask="url(#mask0_12_41)">
<path d="M9.489 0.756418L10.218 0.753418H13.782L14.512 0.756418L15.426 0.766418L15.859 0.773418L16.277 0.784418L16.68 0.798418L17.068 0.814418L17.442 0.835418L17.802 0.860418L18.147 0.890418L18.48 0.923418C20.22 1.11942 21.413 1.53942 22.313 2.43942C23.213 3.33942 23.633 4.53142 23.829 6.27242L23.863 6.60541L23.892 6.95142L23.917 7.31142L23.937 7.68442L23.962 8.27241L23.974 8.68244L23.987 9.32638L23.996 10.2414L24 11.2214L23.999 14.5344L23.996 15.2644L23.986 16.1784L23.979 16.6114L23.968 17.0294L23.954 17.4324L23.938 17.8204L23.917 18.1944L23.892 18.5544L23.862 18.8994L23.829 19.2324C23.633 20.9724 23.213 22.1654 22.313 23.0654C21.413 23.9654 20.221 24.3854 18.48 24.5814L18.147 24.6154L17.801 24.6444L17.441 24.6694L17.068 24.6894L16.48 24.7144L16.07 24.7264L15.426 24.7394L14.511 24.7484L13.531 24.7524L10.218 24.7514L9.48802 24.7484L8.574 24.7384L8.14103 24.7314L7.72298 24.7204L7.32 24.7064L6.932 24.6904L6.558 24.6694L6.198 24.6444L5.853 24.6144L5.52 24.5814C3.78 24.3854 2.587 23.9654 1.687 23.0654C0.786997 22.1654 0.367 20.9734 0.171 19.2324L0.137 18.8994L0.108 18.5534L0.0830003 18.1934L0.063 17.8204L0.038 17.2324L0.026 16.8224L0.013 16.1784L0.004 15.2634L0 14.2834L0.000999997 10.9704L0.004 10.2404L0.014 9.32638L0.021 8.89341L0.032 8.47543L0.046 8.07241L0.062 7.68442L0.0830003 7.31041L0.108 6.95042L0.138 6.60541L0.171 6.27242C0.367 4.53242 0.786997 3.33942 1.687 2.43942C2.587 1.53942 3.779 1.11942 5.52 0.923418L5.853 0.889418L6.199 0.860418L6.559 0.835418L6.932 0.815418L7.52003 0.790418L7.92998 0.778418L8.574 0.765418L9.489 0.756418ZM6.79 8.05242H4.05C4.18 14.2924 7.3 18.0424 12.77 18.0424H13.08V14.4724C15.09 14.6724 16.61 16.1424 17.22 18.0424H20.06C19.28 15.2024 17.23 13.6324 15.95 13.0324C17.23 12.2924 19.03 10.4924 19.46 8.05242H16.88C16.32 10.0324 14.66 11.8324 13.08 12.0024V8.05242H10.5V14.9724C8.90003 14.5724 6.88 12.6324 6.79 8.05242Z" fill="#037ED7"/>
</g>
</g>
<defs>
<clipPath id="clip0_12_41">
<rect width="24" height="24" fill="white" transform="translate(0 0.752441)"/>
</clipPath>
</defs>
</svg>
