<svg width="24" height="25" viewBox="0 0 24 25" fill="none" xmlns="http://www.w3.org/2000/svg">
<g clip-path="url(#clip0_12_47)">
<path d="M18.75 0.752441H5.25C2.35051 0.752441 0 3.10295 0 6.00244V19.5024C0 22.4019 2.35051 24.7524 5.25 24.7524H18.75C21.6495 24.7524 24 22.4019 24 19.5024V6.00244C24 3.10295 21.6495 0.752441 18.75 0.752441Z" fill="#229ED9"/>
<path fill-rule="evenodd" clip-rule="evenodd" d="M5.35162 12.0215L12.8698 8.78314C16.4499 7.29402 17.1939 7.03536 17.6787 7.02682C17.7854 7.02494 18.0239 7.05137 18.1783 7.1767C18.3087 7.28252 18.3446 7.42552 18.3618 7.52582C18.379 7.62611 18.4003 7.85474 18.3834 8.03333C18.1893 10.0718 17.3499 15.0186 16.9228 17.3018C16.7421 18.2679 16.3865 18.5918 16.0418 18.6235C15.2931 18.6924 14.7246 18.1287 13.9995 17.6534L11.1225 15.7209C9.84964 14.8821 10.6748 14.4211 11.4002 13.6677C11.59 13.4705 14.8885 10.4703 14.9523 10.1981C14.9601 10.164 14.9678 10.0372 14.8924 9.97017C14.817 9.90312 14.7057 9.9263 14.6255 9.94429C14.5116 9.97009 12.699 11.1681 9.18769 13.5385C8.67319 13.8918 8.20714 14.064 7.78962 14.055C7.32933 14.045 6.4439 13.7946 5.78568 13.5807C4.97833 13.3182 4.33666 13.1795 4.39255 12.7338C4.42163 12.5017 4.74136 12.2643 5.35162 12.0215Z" fill="white"/>
</g>
<defs>
<clipPath id="clip0_12_47">
<rect width="24" height="24" fill="white" transform="translate(0 0.752441)"/>
</clipPath>
</defs>
</svg>
