<svg width="150" height="72" viewBox="0 0 150 72" fill="none" xmlns="http://www.w3.org/2000/svg">
<g clip-path="url(#clip0_1_175)">
<g filter="url(#filter0_d_1_175)">
<path d="M15.8625 67.5802C16.089 68.792 16.982 69.1384 17.7232 68.4603C27.1365 58.3243 54.4335 55.0351 70.4778 56.6006C73.783 56.5286 77.2516 57.6632 80.4523 56.9899C84.0811 52.9036 84.0435 46.318 86.1246 41.2615C86.5446 38.0278 87.8448 34.5816 87.2057 31.3533C77.9025 28.2691 68.2968 26.0349 58.5749 24.7489C39.5718 21.4946 11.1384 24.5627 2.44318 42.9946C2.25747 43.61 2.24547 44.2535 2.77946 44.5884C2.77946 44.5884 9.90015 48.843 12.5513 51.6949C12.8825 52.0511 13.0978 52.501 13.1637 52.9827C14.6239 63.6628 15.8625 67.5802 15.8625 67.5802Z" fill="#00615C"/>
</g>
<path d="M5.47595 42.8165C5.50617 42.7681 5.71646 42.8261 6.09489 42.9779C6.47227 43.1295 7.01317 43.3795 7.6672 43.708C8.3077 44.0272 9.11788 44.4448 10.0153 44.9724C10.91 45.5044 11.91 46.1315 12.9288 46.9309C13.1811 47.1296 13.4357 47.3375 13.685 47.5626C13.9268 47.7752 14.1743 48.0024 14.4172 48.2512C14.9011 48.7514 15.4072 49.3091 15.763 50.0617C15.9489 50.4344 16.0578 50.8386 16.1072 51.2377L16.1326 51.5369L16.1403 51.8182C16.1471 52.0052 16.1537 52.1903 16.1603 52.3738C16.1901 53.0898 16.2746 53.8515 16.3713 54.6583C16.4191 55.062 16.4681 55.4769 16.5186 55.9035C16.5639 56.3151 16.6096 56.7301 16.6555 57.1481C16.7538 57.9785 16.855 58.8211 16.9872 59.668C17.1192 60.5147 17.2648 61.3685 17.4344 62.222C17.518 62.649 17.6071 63.0762 17.709 63.4998C17.8136 63.919 17.9202 64.3531 18.0812 64.7302C18.1054 64.7825 18.1341 64.8433 18.1587 64.8744L18.1765 64.901C18.178 64.9017 18.1772 64.8989 18.1772 64.8989C18.1772 64.8989 18.1791 64.8912 18.1582 64.9241C18.1511 64.936 18.1447 64.9486 18.1392 64.9617L18.1352 64.9716L18.1333 64.9767L18.1328 64.9779C18.0979 65.0478 18.18 64.8835 18.1718 64.9005L18.1732 64.9013L18.1826 64.9064L18.2196 64.9281C18.2498 64.9491 18.2442 64.9461 18.2526 64.9529C18.2766 64.9719 18.2905 65.0034 18.3202 65.014C18.3527 65.0168 18.3727 64.9842 18.3972 64.9682L18.6593 64.7533L18.9701 64.503L19.5996 64.0112L20.5676 63.2997C20.8847 63.0784 21.2051 62.8548 21.529 62.6288C21.8527 62.3926 22.1957 62.1884 22.5281 61.9696C22.868 61.7521 23.216 61.529 23.5556 61.3432C23.8971 61.1484 24.237 60.9546 24.5753 60.7617C24.9123 60.5666 25.2635 60.4026 25.6039 60.223C25.9467 60.0479 26.2874 59.8738 26.6256 59.701C26.9711 59.5432 27.3141 59.3865 27.6543 59.2311C27.9953 59.0772 28.3309 58.9179 28.6684 58.7721C29.0377 58.6243 29.4216 58.4848 29.7711 58.3613C30.124 58.238 30.4594 58.1208 30.7765 58.01C31.0958 57.9049 31.4014 57.8174 31.6841 57.7187C32.2995 57.5141 32.9114 57.2735 33.5401 57.0707C34.1651 56.8801 34.8269 56.6871 35.4419 56.5252C36.05 56.3501 36.6239 56.2535 37.1443 56.1376C38.1577 55.9195 39.1185 55.6503 40.0399 55.498C40.9336 55.3392 41.7047 55.1855 42.3387 55.0886C42.9748 55.0058 43.4684 54.9416 43.7984 54.8986C44.4406 54.8244 45.0788 54.7234 45.7267 54.6519C46.3716 54.5972 47.0439 54.5576 47.5975 54.5288C48.1694 54.5006 48.707 54.4742 49.2061 54.4496C49.4555 54.4456 49.6955 54.4521 49.9252 54.4528C50.0471 54.4546 50.1662 54.4564 50.2827 54.4581C50.4027 54.4621 50.5193 54.4661 50.6305 54.4697C51.5154 54.5113 52.112 54.5785 52.5383 54.6223C52.9584 54.6694 53.1974 54.7052 53.1985 54.75C53.2006 54.7928 52.9438 54.8414 52.4647 54.8701C51.9893 54.9018 51.2961 54.9022 50.5366 54.9202C50.4436 54.9232 50.3483 54.9263 50.2506 54.9295C50.1494 54.934 50.046 54.9387 49.94 54.9434C49.7123 54.9545 49.4741 54.9599 49.2269 54.9769C48.7327 55.0194 48.2003 55.0652 47.6337 55.114C47.0482 55.1614 46.5119 55.2035 45.8928 55.264C45.2788 55.3283 44.6042 55.448 43.8724 55.5307C43.551 55.5707 43.0731 55.6301 42.4585 55.7066C41.8455 55.7933 41.1024 55.9401 40.2404 56.0874C39.8245 56.1674 39.3628 56.2387 38.8673 56.3556C38.3721 56.4739 37.8351 56.5983 37.2539 56.7192C36.6865 56.8373 36.116 56.936 35.5633 57.0898C35.0079 57.2301 34.4711 57.38 33.8635 57.5583C33.261 57.7273 32.6394 57.9789 31.9587 58.1961C31.5961 58.3111 31.24 58.4241 30.8924 58.5343C30.5488 58.6505 30.2145 58.7635 29.8961 58.8711C29.5756 58.9798 29.2657 59.0878 28.9716 59.1997C28.6362 59.3284 28.3101 59.4879 27.9744 59.6325C27.6381 59.7818 27.2991 59.9325 26.9575 60.0842C26.6158 60.2355 26.2849 60.4158 25.9445 60.5819C25.606 60.7521 25.2655 60.9234 24.9229 61.0957C24.5879 61.282 24.2511 61.4694 23.9127 61.6576L23.4121 61.9366L22.9218 62.2375C22.5958 62.4446 22.2637 62.6451 21.9395 62.8594C21.6132 63.0814 21.2809 63.3075 20.9434 63.5371C20.6198 63.7673 20.2956 63.9981 19.9709 64.2292C19.736 64.4005 19.5074 64.5805 19.2753 64.7558C19.1589 64.843 19.0443 64.9326 18.9312 65.0244L18.544 65.3345C18.4783 65.3862 18.415 65.42 18.3463 65.4358C18.267 65.4486 18.2044 65.409 18.1481 65.3661C18.1188 65.3427 18.0894 65.3144 18.0605 65.284C18.0487 65.2717 18.027 65.2478 18.0185 65.2411C18.0143 65.2373 18.0105 65.2358 18.0072 65.2335C17.9808 65.2167 17.9171 65.1694 17.8929 65.1384L17.8303 65.0495C17.7027 64.8207 17.6406 64.61 17.5724 64.3927C17.5087 64.1768 17.4516 63.9612 17.4002 63.7453C17.2964 63.3136 17.2075 62.8816 17.1246 62.45C16.9554 61.5878 16.8073 60.7283 16.6727 59.8752C16.5348 59.0226 16.4297 58.1738 16.3248 57.337C16.2757 56.9185 16.2271 56.5028 16.1788 56.0905C16.1299 55.7019 16.0803 55.3083 16.0299 54.9081C15.9268 54.1087 15.8201 53.2917 15.7689 52.4318C15.7385 52.0226 15.7435 51.5994 15.7 51.2636C15.647 50.9156 15.5536 50.584 15.4071 50.2913C15.1308 49.7034 14.6885 49.1526 14.2059 48.6681C13.9628 48.4241 13.7094 48.1865 13.4469 47.9581C13.1966 47.736 12.9414 47.5279 12.687 47.3297C11.6803 46.5461 10.6806 45.9278 9.79313 45.3904C8.9007 44.858 8.11094 44.4325 7.42782 44.0548C6.76398 43.6852 6.26886 43.4066 5.93865 43.202C5.60941 42.9986 5.4458 42.865 5.47595 42.8165Z" fill="white"/>
<path d="M48.5029 25.9224C48.4942 25.9785 48.3318 26.0097 48.0319 26.0132C47.733 26.0147 47.297 25.9988 46.7626 25.9738C46.2395 25.954 45.5742 25.9389 44.8148 25.9263C44.0551 25.917 43.196 25.9144 42.2567 25.9447C42.0235 25.9515 41.7853 25.9584 41.5424 25.9655C41.3096 25.9794 41.0677 25.9939 40.8175 26.0089C40.3149 26.0378 39.7891 26.1001 39.2095 26.1286C38.6267 26.1652 38.0679 26.1632 37.5269 26.1952C37.0006 26.2322 36.4403 26.3002 35.8503 26.4026C35.5551 26.4507 35.2514 26.4996 34.9379 26.5424C34.6364 26.587 34.3323 26.632 34.0261 26.6774C33.4163 26.7635 32.8012 26.8727 32.1811 26.9908C31.5618 27.1123 30.9402 27.2564 30.3133 27.3942C29.6908 27.551 29.0584 27.6867 28.4343 27.8629C27.8698 28.0209 27.3007 28.1656 26.7433 28.3455L25.9055 28.6032C25.6348 28.6837 25.3697 28.7897 25.0985 28.8862C24.8247 28.9866 24.5516 29.0866 24.2794 29.1864C24.0046 29.2919 23.7242 29.3997 23.4612 29.5008C23.1942 29.6039 22.9285 29.7066 22.6642 29.8087C22.4033 29.9193 22.1439 30.0293 21.8861 30.1386C21.6288 30.2489 21.3731 30.3586 21.1192 30.4675C20.8668 30.5799 20.6209 30.7016 20.3745 30.8167C20.1288 30.9332 19.885 31.0487 19.6435 31.1631C19.3816 31.2854 19.1171 31.4194 18.8702 31.528C18.375 31.7541 17.9181 31.9357 17.5431 32.1602C17.1335 32.3964 16.7216 32.6397 16.3148 32.8959C15.918 33.1589 15.496 33.4285 15.0972 33.6633C14.7031 33.9008 14.3527 34.1369 14.0268 34.3481C13.3871 34.7515 12.845 35.2383 12.3079 35.6518C11.2849 36.4852 10.5584 37.117 10.2153 37.4576C9.87354 37.7789 9.52687 38.0941 9.20014 38.4357C8.8786 38.7781 8.53209 39.1215 8.24353 39.4022C7.94071 39.6881 7.69039 39.9886 7.43651 40.2479C7.31147 40.3793 7.19122 40.5057 7.07607 40.6267C7.01432 40.6905 6.95395 40.7528 6.89496 40.8137C6.83386 40.8765 6.77049 40.9342 6.71579 40.9933C6.27269 41.461 5.94069 41.7551 5.7057 41.9693C5.47094 42.178 5.32921 42.2927 5.29258 42.2667C5.25701 42.2426 5.33934 42.0674 5.54379 41.7764C5.74476 41.4861 6.07148 41.0885 6.42018 40.6462C6.46483 40.5936 6.51061 40.5397 6.55753 40.4844C6.60518 40.4264 6.65396 40.3669 6.70388 40.3061C6.81174 40.1756 6.92438 40.0393 7.04163 39.8975C7.28206 39.6189 7.52192 39.3003 7.81802 38.9984C8.11874 38.6817 8.39515 38.3926 8.70697 38.0494C9.01263 37.705 9.38968 37.3616 9.78902 36.9846C10.1342 36.6461 10.8605 36.0278 11.8754 35.2074C12.3827 34.8316 12.9519 34.3191 13.7063 33.8505C14.0719 33.6187 14.4316 33.3811 14.8026 33.1676C15.1738 32.9554 15.5268 32.7376 15.9243 32.4826C16.3166 32.2303 16.7526 31.9878 17.2162 31.7245C17.7073 31.4372 18.2243 31.2431 18.6817 31.0401C18.9134 30.9412 19.1338 30.8377 19.3461 30.74C19.5888 30.6293 19.8338 30.5175 20.0809 30.4047C20.3295 30.2912 20.5801 30.1768 20.8326 30.0615C21.0892 29.9556 21.3476 29.8488 21.6077 29.7414C21.868 29.6345 22.13 29.527 22.3934 29.4189C22.6604 29.3198 22.9288 29.2201 23.1984 29.1199C23.4637 29.0214 23.7304 28.9225 23.998 28.8231C24.2689 28.7286 24.5409 28.6337 24.8136 28.5385C25.0908 28.4424 25.372 28.3409 25.6612 28.2491L26.5133 28.0007C27.0773 27.8294 27.6504 27.6851 28.2223 27.5383C28.8512 27.3646 29.4893 27.2343 30.1184 27.084C30.7495 26.9425 31.378 26.806 32.0017 26.6767C32.6273 26.5571 33.2474 26.4388 33.863 26.3477C34.1702 26.2993 34.4752 26.2513 34.7779 26.2036C35.064 26.1608 35.3532 26.114 35.646 26.0624C36.2317 25.9551 36.8327 25.861 37.4662 25.8053C38.0809 25.7574 38.6381 25.7521 39.1391 25.7128C39.6369 25.6843 40.1618 25.6145 40.6784 25.574L41.4607 25.5151C41.7123 25.4991 41.9595 25.4939 42.2013 25.4831C43.157 25.4422 44.0325 25.4368 44.8066 25.4535C45.5809 25.4719 46.248 25.5034 46.8258 25.5586C47.3879 25.619 47.8045 25.682 48.0856 25.7469C48.3657 25.8096 48.5116 25.8659 48.5029 25.9224Z" fill="white"/>
<g filter="url(#filter1_d_1_175)">
<path d="M78.5946 46.1803C78.8547 47.018 79.9898 47.1334 80.7331 47.21C87.3416 47.7874 93.9243 48.6263 100.491 49.5606C113.542 51.424 129.133 48.1634 137.507 42.1842C145.805 36.2593 148.883 27.4408 147.211 27.7444C144.429 28.2496 139.394 27.9716 137.347 26.5418C135.299 25.112 134.92 15.7872 134.92 15.7872C134.836 15.0906 134.017 14.7987 133.51 15.2804C132.142 16.5812 129.401 18.7786 124.319 21.5237C119.363 24.1236 113.902 25.6362 108.445 26.7724C83.4932 32.2818 79.3864 20.319 79.867 37.3245C79.5711 38.9624 79.6339 40.6164 79.4674 42.263C79.2791 43.5794 78.5015 44.8328 78.5946 46.1803Z" fill="#00615C"/>
</g>
<path d="M110.538 48.3854C110.541 48.3285 110.824 48.2656 111.358 48.2024C111.891 48.1323 112.675 48.0927 113.634 47.9985C114.57 47.8957 115.763 47.7933 117.114 47.5948C117.453 47.5498 117.802 47.5033 118.162 47.4555C118.52 47.3944 118.888 47.3315 119.267 47.2668C119.645 47.202 120.033 47.1355 120.431 47.0674C120.825 46.9841 121.229 46.8987 121.642 46.8116C122.051 46.7198 122.474 46.6491 122.895 46.5349C123.3 46.429 123.721 46.3189 124.156 46.2052C124.595 46.0972 125.034 45.9488 125.493 45.8083C125.95 45.6616 126.431 45.534 126.921 45.3579C127.419 45.1971 127.905 45.0399 128.384 44.8853C128.857 44.7147 129.32 44.5473 129.776 44.3827C130.654 44.0318 131.573 43.6044 132.515 43.0907C132.995 42.8517 133.46 42.5547 133.956 42.2798C134.436 42.019 134.891 41.7076 135.365 41.4205C135.825 41.1167 136.282 40.8 136.737 40.4762C137.177 40.1328 137.638 39.8086 138.059 39.4317C138.931 38.7127 139.744 37.9079 140.522 37.0645C141.302 36.2216 142.018 35.3112 142.668 34.3521C143.254 33.484 143.782 32.5758 144.244 31.6375C144.471 31.1666 144.689 30.6922 144.887 30.2087C144.96 30.0287 145.033 29.8479 145.106 29.6662C145.119 29.6234 145.148 29.5854 145.149 29.5431C145.126 29.4964 145.064 29.5303 145.025 29.5262L144.949 29.5335C144.433 29.5765 143.897 29.6 143.373 29.6234C142.838 29.6358 142.291 29.6387 141.776 29.6198C140.732 29.5832 139.691 29.4818 138.679 29.2383C137.677 28.9809 136.681 28.5774 135.892 27.8865C135.501 27.5448 135.152 27.1533 134.883 26.7203C134.586 26.2543 134.37 25.7339 134.214 25.256C133.918 24.2838 133.8 23.3951 133.685 22.6092C133.562 21.7568 133.466 20.895 133.38 20.0286C133.341 19.5999 133.301 19.1601 133.261 18.7233C133.25 18.5892 133.239 18.4556 133.229 18.3235L133.222 18.2231C133.228 18.1832 133.204 18.1659 133.188 18.1845C133.173 18.2016 133.159 18.2185 133.147 18.2318C133.136 18.2443 133.121 18.2626 133.111 18.2713C133.054 18.3318 132.998 18.3915 132.943 18.4505C132.824 18.5827 132.702 18.7032 132.577 18.8152C132.337 19.05 132.09 19.2503 131.856 19.4483C130.776 20.3192 129.677 21.0599 128.615 21.6969C126.533 22.9095 124.934 23.6348 124.137 24.0091C123.358 24.3613 122.58 24.7112 121.784 25.0423C120.995 25.3764 120.161 25.6882 119.469 25.9318C118.755 26.1872 118.077 26.4071 117.447 26.6048C117.13 26.699 116.826 26.7895 116.534 26.8763C116.379 26.9194 116.226 26.9616 116.078 27.0028C115.924 27.0452 115.773 27.0806 115.631 27.1149C114.488 27.3833 113.696 27.4825 113.13 27.5302C112.57 27.5736 112.252 27.5445 112.249 27.5035C112.245 27.4567 112.57 27.404 113.182 27.2694C113.789 27.1353 114.679 26.9306 115.641 26.6451C115.758 26.6089 115.878 26.5718 116.002 26.5338C116.129 26.4923 116.259 26.4498 116.392 26.4063C116.677 26.3093 116.975 26.208 117.285 26.1026C117.903 25.8849 118.568 25.6483 119.271 25.38C119.997 25.1057 120.66 24.8456 121.415 24.5202C122.167 24.2016 122.991 23.8273 123.879 23.4275C124.654 23.0667 126.201 22.3734 128.201 21.2244C129.164 20.662 130.297 19.9331 131.503 18.9718C131.747 18.7713 131.988 18.5688 132.213 18.3528C132.332 18.2495 132.437 18.1366 132.543 18.0244L132.739 17.8153L133.023 17.4574C133.143 17.3949 133.269 17.3121 133.378 17.2661C133.42 17.2619 133.5 17.2802 133.548 17.3108C133.602 17.3246 133.598 17.3976 133.615 17.4639L133.695 17.8524C133.74 18.0977 133.823 18.4048 133.819 18.5655C133.85 18.9492 133.883 19.3427 133.917 19.7617C133.992 20.5875 134.08 21.4684 134.201 22.3998C134.335 23.3904 134.476 24.3414 134.737 25.1706C134.871 25.5854 135.034 25.9761 135.237 26.3239C135.474 26.7168 135.757 27.0848 136.094 27.4054C136.44 27.7217 136.833 27.9889 137.257 28.2141C137.69 28.4206 138.141 28.6053 138.619 28.7283C139.568 28.9952 140.576 29.1124 141.593 29.1654C142.095 29.1846 142.6 29.1977 143.108 29.1907C143.618 29.1803 144.131 29.1642 144.644 29.13C144.843 29.1175 145.042 29.105 145.25 29.0919C145.323 29.0875 145.385 29.0986 145.438 29.113C145.49 29.1307 145.53 29.1363 145.576 29.1801C145.685 29.2756 145.621 29.39 145.606 29.5081L145.589 29.5959L145.543 29.6996L145.461 29.8962L145.352 30.1572C145.146 30.645 144.934 31.1356 144.696 31.6143C144.231 32.57 143.696 33.4951 143.099 34.3769C142.442 35.3533 141.71 36.2742 140.925 37.1359C140.543 37.5763 140.126 37.9815 139.721 38.3952C139.296 38.7882 138.884 39.1935 138.44 39.5571C137.579 40.3181 136.646 40.9716 135.723 41.608C135.25 41.9066 134.783 42.2095 134.309 42.4916C133.855 42.7468 133.406 43.026 132.938 43.2847C132.464 43.5333 131.992 43.8013 131.498 44.0431C130.998 44.2746 130.493 44.5178 129.963 44.7328C129.444 44.9262 128.949 45.1103 128.478 45.2856C128.001 45.4427 127.549 45.5917 127.12 45.7331C126.698 45.8864 126.257 46.0202 125.812 46.161C125.367 46.2977 124.923 46.458 124.473 46.5794C124.021 46.7017 123.566 46.8249 123.112 46.9478C122.675 47.0701 122.239 47.1528 121.814 47.2483C121.394 47.3396 120.983 47.4288 120.582 47.516C120.177 47.5875 119.782 47.6574 119.397 47.7254C119.012 47.792 118.637 47.8567 118.273 47.9197C117.906 47.9677 117.551 48.0142 117.206 48.0594C115.829 48.2552 114.634 48.3426 113.597 48.4215C112.587 48.4814 111.832 48.4755 111.319 48.4753C110.808 48.4691 110.536 48.4428 110.538 48.3854Z" fill="white"/>
<path d="M35.8601 37.926C36.4321 37.7005 37.0529 37.4653 37.6664 37.3627C40.6384 36.8653 43.0826 38.9618 43.4882 41.9477C44.0669 46.2093 42.1888 49.3942 37.9402 50.1049C36.1969 50.3971 32.3788 49.8355 32.0737 47.5895C31.9459 46.6458 32.5994 45.7274 33.5076 45.5753C34.4904 45.4108 35.8908 46.8466 37.5358 46.5713C39.2548 46.2834 39.9038 44.4007 39.6856 42.793C39.4773 41.2624 38.5 40.3558 36.9775 40.6104C35.5532 40.8488 35.4466 41.7271 34.1943 41.9368C33.2367 42.0969 32.6416 41.4132 32.5827 40.9796C32.5375 40.6476 32.5524 40.3848 32.5387 40.1006L32.4214 34.613C32.3722 32.5855 32.8294 32.0656 34.0079 31.8678L39.9259 30.8781C41.0556 30.6892 41.812 31.2675 41.9362 32.1862C42.1754 33.9463 40.9195 34.3135 40.4772 34.3873L35.861 35.1593L35.8601 37.926Z" fill="white"/>
<path d="M31.1655 49.5368C32.2405 49.206 33.2109 49.4439 33.5327 50.5809C33.8544 51.718 33.1635 52.4686 32.2362 52.7547L24.0774 55.2695C23.0024 55.6002 22.0327 55.3625 21.711 54.2254C21.5634 53.7061 21.7554 53.1637 21.9153 52.7913C23.2504 49.7205 24.8192 46.8189 25.9058 43.527C26.163 42.7498 26.3616 41.8549 26.1094 40.9649C25.8227 39.9515 24.8144 39.2949 23.8124 39.604C21.0038 40.47 23.4806 44.0594 21.1356 44.7823C19.9631 45.1442 19.1145 44.492 18.8415 43.5278C17.96 40.4137 19.9897 37.0747 22.9932 36.1487C25.9983 35.2229 28.9832 36.4796 29.8712 39.6178C30.8438 43.0525 28.0235 47.6309 26.6956 50.9148L31.1655 49.5368Z" fill="white"/>
<path d="M122.472 32.3958C122.359 31.8836 121.977 31.6654 121.57 31.7518L118.199 32.471C117.794 32.5574 117.537 32.9127 117.65 33.4254L118.349 36.5809C118.603 37.7285 118.277 38.4524 117.886 38.7506C117.549 39.0157 117.423 39.2243 117.502 39.5834C117.579 39.9317 117.852 40.2486 118.318 40.1499C118.782 40.0507 119.09 39.7488 119.354 39.3812C119.98 38.4967 119.989 37.1214 119.733 35.9632L119.226 33.6687L121.143 33.2595L122.295 38.4641C122.408 38.9763 122.782 39.1971 123.198 39.108C123.614 39.0189 123.86 38.6663 123.747 38.1536L122.472 32.3958Z" fill="white"/>
<path d="M128.041 35.7924L126.327 36.4326L125.763 34.9383L127.283 34.3707C127.728 34.2048 127.83 33.7738 127.704 33.4398C127.573 33.0957 127.225 32.8444 126.771 33.0141L125.252 33.5817L124.712 32.1466L126.341 31.5374C126.777 31.3747 126.87 30.9474 126.743 30.6134C126.614 30.2698 126.274 30.0148 125.83 30.1807L123.533 31.0391C123.042 31.2221 122.948 31.6724 123.133 32.1637L125.171 37.5711C125.338 38.0128 125.755 38.1937 126.162 38.0416L128.553 37.1486C128.988 36.9864 129.08 36.5591 128.954 36.2246C128.825 35.881 128.486 35.626 128.041 35.7924Z" fill="white"/>
<path d="M132.604 34.5089L130.361 29.7401L131.336 29.2813C131.765 29.0791 131.788 28.6625 131.635 28.3392C131.48 28.0068 131.105 27.7891 130.719 27.97L127.429 29.5198C127.044 29.7001 126.972 30.129 127.129 30.4608C127.281 30.7841 127.616 31.0327 128.045 30.83L129.02 30.3712L131.263 35.1405C131.486 35.6159 131.897 35.7471 132.282 35.5663C132.666 35.3849 132.828 34.9848 132.604 34.5089Z" fill="white"/>
<g filter="url(#filter2_d_1_175)">
<path d="M78.5888 17.231C74.7609 17.1354 59.8562 14.6804 51.7355 24.3261C41.2804 36.7438 47.7732 49.5426 55.9681 56.0337C61.7791 60.6368 75.2011 66.9976 83.2554 66.5248C91.0201 66.0682 104.254 57.938 109.63 49.5333C116.129 39.3739 118.137 25.7368 104.574 18.1172C91.6502 10.8563 82.8368 17.3375 78.5888 17.231Z" fill="white"/>
</g>
<path d="M72.3891 38.8657C71.2581 38.9031 71.2967 37.4725 70.9343 34.2527C70.3202 28.7919 70.7079 29.4397 72.2293 29.3789C72.8557 29.3584 73.907 28.057 75.4023 28.7865C78.0606 30.0557 78.0414 36.9656 73.5019 35.8716C72.3102 35.5844 73.9636 38.8056 72.3891 38.8657ZM73.8054 30.5027C71.3358 30.5856 73.4369 36.1177 74.8039 33.7004C75.4056 32.6601 74.9817 30.46 73.8054 30.5027Z" fill="#014E72"/>
<path d="M81.0375 38.0151C79.5729 38.0665 81.0066 36.3307 81.2638 35.4283C81.4034 34.9286 80.5004 35.2444 79.7093 34.7202C78.5178 33.9376 77.3936 29.4612 78.4297 28.7728C79.9785 27.7436 79.9178 32.9686 81.0885 32.9277C82.5085 32.8779 81.5757 29.2278 82.4839 28.4959C84.8334 26.6213 84.1009 37.915 81.0375 38.0151Z" fill="#EE765E"/>
<path d="M90.0801 35.284C89.6994 35.2971 89.2746 35.0087 89.1835 34.3361C89.1441 34.0415 89.06 31.7477 88.965 31.2425C88.8422 30.6 88.5318 30.2598 88.1773 30.3809C88.019 30.4334 87.7055 30.6671 87.375 31.6366C87.2947 31.8718 86.975 33.8317 86.9116 34.0739C86.7248 34.7788 86.5047 35.156 86.1973 35.2971C86.1054 35.3395 86.0089 35.3635 85.9108 35.3658C85.5842 35.3774 85.3077 35.1583 85.1796 34.937C84.9757 34.5883 84.9818 34.0245 85.0251 33.6126C85.0305 33.5633 85.1772 31.1854 85.2066 30.9679C85.3479 29.9321 85.5529 29.4574 85.8946 29.4107C86.3571 29.3474 86.4985 29.1623 86.7132 29.0173C86.7811 28.9718 87.7441 28.3479 88.2468 28.2723C89.0036 28.1596 89.6283 28.526 90.0075 28.8306C90.2894 29.0613 90.4191 29.1608 90.6075 29.17C90.7481 29.1654 91.4384 28.6533 91.5396 28.5861C91.8979 28.3463 92.3218 28.2121 92.7666 28.1974C93.233 28.1812 93.6168 28.2993 93.8207 28.4157C94.2585 28.6633 94.7389 29.3975 94.8485 29.9868C94.9342 30.4565 95.2516 33.2586 95.257 33.8317C95.264 34.3623 95.1937 34.9871 94.5891 35.1113C94.1975 35.1953 93.6377 34.8837 93.4779 34.1811C93.4083 33.871 93.1342 31.689 93.1342 31.689C93.0971 31.406 92.8717 30.6193 92.4794 30.5931H92.4778C92.2037 30.6031 91.8902 30.9864 91.7226 31.3427C91.5998 31.6027 91.1913 34.0006 91.1017 34.2366C90.8755 34.8197 90.7395 35.1714 90.1905 35.2717C90.1535 35.2794 90.1164 35.2833 90.0801 35.284Z" fill="#014E72"/>
<path d="M62.8304 38.5344H62.8296C62.0365 38.5614 61.6882 37.8603 61.6203 37.5872L61.6319 37.5841C61.5825 37.4561 61.5207 37.244 61.4195 36.8954C61.3292 36.8221 61.1863 36.7327 61.0272 36.7296C60.5099 36.7211 59.3384 36.4812 58.6025 36.1866C56.8032 35.4623 56.3638 34.9302 55.9753 34.4597C55.9105 34.3818 55.8472 34.3046 55.7777 34.2291C55.0024 33.3822 54.6471 32.2206 54.8031 31.0413C54.956 29.8774 55.6132 28.9149 56.2178 28.5038C56.1452 28.4544 56.078 28.392 56.0201 28.3156C55.7514 27.9708 55.6858 27.033 56.658 25.9948C57.4881 25.1047 58.2496 24.7499 58.8048 24.49C59.0843 24.3604 59.3801 24.281 59.6658 24.2046C59.8697 24.1491 60.0759 24.0944 60.2805 24.0188C60.6573 23.8822 60.7284 23.4881 60.7415 23.3254L60.7662 23.2351C61.0079 22.7438 61.3516 22.4553 61.7338 22.4214L61.8049 22.4168C62.4126 22.3967 62.7285 22.7847 62.8149 23.1217C62.8983 23.4449 63.1964 23.6431 63.7833 23.7658L64.1617 23.846C65.9586 24.2224 66.2737 24.4229 67.3162 25.0885L67.6614 25.3083C68.7819 26.0148 69.4599 27.8212 69.6128 28.5848C69.7534 29.299 69.8754 30.4312 69.3271 32.0193C68.8491 33.4045 68.0885 34.1357 67.5849 34.6201C66.4714 35.6899 64.8181 36.2413 64.2737 36.3655C64.086 36.4072 64.0227 36.6085 63.9323 37.4399C63.8945 37.7932 63.8242 38.4511 62.9346 38.5267C62.9038 38.5305 62.8667 38.5336 62.8304 38.5344ZM57.3769 28.1258C57.7291 28.1258 57.9376 28.2608 58.0333 28.3441C58.2256 28.5138 58.2742 28.7761 58.1677 29.0653C58.136 29.1555 58.0503 29.2512 57.9144 29.3993C57.6634 29.6731 57.5067 30.243 57.3739 30.8176C57.2379 31.4008 57.4457 32.3926 57.8179 32.9425C58.1731 33.4663 58.3523 33.6367 59.0287 33.9236C59.6604 34.1905 60.4604 34.2707 60.8172 34.2591L60.8875 34.2545C61.055 34.2399 61.1794 34.1882 61.2558 34.0995C61.3454 33.9961 61.3794 33.8349 61.3554 33.6221C61.3091 33.194 61.2921 32.5978 61.2736 31.9676C61.2597 31.4786 61.245 30.9696 61.2149 30.5092C61.15 29.4594 60.9392 27.3152 60.8697 26.9134C60.8087 26.5602 60.7222 26.5123 60.6388 26.4661C60.5485 26.4152 60.4095 26.3905 60.2365 26.3966C59.9577 26.4067 59.6882 26.4869 59.5731 26.5339C58.7924 26.8424 58.4804 27.0553 58.3136 27.1887C57.8874 27.5312 57.6727 27.761 57.3769 28.1258ZM64.0297 26.2455C63.7964 26.2539 63.7308 26.3565 63.5879 26.672C63.435 27.0021 63.3964 28.0657 63.4698 29.8319L63.4729 29.9067C63.5022 30.6256 63.6999 32.7837 63.8088 33.133C63.9293 33.5133 63.9841 33.6876 64.3501 33.7801C64.6173 33.8473 64.9717 33.7084 65.4636 33.3467C66.5425 32.5569 67.0668 31.5295 67.2182 29.9114C67.3193 28.8131 66.6776 27.6114 65.9988 27.0846C65.1718 26.4421 64.6559 26.2863 64.1347 26.2485C64.0953 26.2455 64.0613 26.2447 64.0297 26.2455Z" fill="#FCBD14"/>
<path d="M95.7011 52.7321C93.8334 51.9753 96.2594 50.4672 97.0707 48.6082C97.4961 47.6337 97.2704 47.5053 96.5742 47.2663C94.3909 46.5143 93.8865 44.8069 94.6691 42.5877C96.1005 38.4799 102.539 38.2438 103.049 41.8673C103.055 41.9153 104.199 49.1086 104.232 49.503C104.386 51.277 102.67 51.1769 102.99 51.1636C100.984 51.2469 101.976 47.4145 100.848 47.4596C98.8011 47.548 98.4479 53.845 95.7011 52.7321ZM98.4621 41.5434C96.4892 42.1689 96.3196 46.6577 99.6013 45.4283C102.461 44.357 101.106 40.7021 98.4621 41.5434Z" fill="#014E72"/>
<path d="M91.3519 53.1374C89.0935 53.2226 90.9936 48.1379 89.974 47.2877C89.2563 46.6796 85.7335 46.9666 85.4227 47.1058C83.5731 47.9338 85.0607 52.9855 83.0251 53.0659C81.2822 53.1239 81.7808 50.5321 82.1594 45.9626C82.4597 42.3384 82.0768 39.6659 83.8949 39.5072C85.7712 39.3911 83.9942 44.056 85.1007 44.6057C86.0115 45.0624 87.9871 44.975 89.1084 44.6877C90.3228 44.3745 90.594 43.0799 90.594 41.8576C90.594 39.1578 91.2364 38.8559 91.5311 38.7813C92.8174 38.4555 92.9323 41.1529 92.8133 43.2532C92.2913 52.5341 92.8801 53.077 91.3519 53.1374Z" fill="#014E72"/>
<path d="M71.6259 53.0387C69.0746 53.1386 72.6651 49.4192 72.9333 49.0442C73.6927 47.9828 73.41 47.9419 72.7696 47.5456C70.7857 46.3196 70.7837 44.5234 72.0506 42.5777C74.4545 38.8494 80.7585 39.9655 80.3736 43.6559C80.3687 43.7041 79.7443 50.9362 79.6771 51.3542C79.3429 53.469 77.0373 52.9877 77.2361 51.0757C77.6452 47.1955 75.7104 49.0048 73.3927 52.1077C73.0888 52.5119 72.5879 52.9995 71.6259 53.0387ZM75.3635 42.6911C72.9967 43.2825 73.6066 46.8697 76.1179 46.4465C78.8735 45.983 77.8555 42.0701 75.3635 42.6911Z" fill="#014E72"/>
<path d="M60.1807 55.2222C58.4514 55.2915 59.601 52.8813 57.2686 42.1343C56.7251 39.6459 58.9221 39.1496 59.4378 41.1686C60.147 43.9415 60.524 45.7784 61.0479 45.9506C62.0482 46.2787 64.1283 45.8199 65.2333 45.3328C67.3787 44.3893 65.2978 38.7509 67.0388 38.3866C68.5111 38.0675 68.5351 40.3087 69.2265 46.7196C69.691 51.0827 71.0396 53.8511 68.9709 53.9288C66.6001 53.9927 68.3812 47.6104 65.5801 47.723C65.094 47.7439 64.7566 47.8365 64.024 47.9752C62.629 48.2448 61.2776 48.3727 61.2239 49.8634C61.1726 51.5577 61.9706 55.1561 60.1807 55.2222Z" fill="#014E72"/>
<path d="M100.439 28.1753C98.5485 27.6879 96.8797 28.8355 96.2797 31.2882C95.6812 33.7401 96.5083 35.3074 98.4211 35.764C100.333 36.2206 102.359 34.823 102.788 32.2855C103.217 29.7487 101.857 28.5409 100.439 28.1753ZM100.854 32.2847C100.598 33.4825 99.6845 34.2237 98.8667 33.9345C98.0481 33.6445 97.8002 32.9118 98.1431 31.6584C98.486 30.4036 99.0628 29.8042 100.024 29.9354C100.94 30.0611 101.112 31.0877 100.854 32.2847Z" fill="#4AAE42"/>
<path d="M105.651 1.80542C105.651 1.80542 94.5435 -1.00478 87.2655 3.14903C78.8951 7.92634 79.4837 17.1725 79.4837 17.1725C85.3439 16.2309 87.5146 21.0507 96.5328 18.2274C106.862 14.9936 105.651 1.80542 105.651 1.80542Z" fill="#00615C"/>
<path d="M70.0172 4.27392C70.0172 4.27392 69.4626 7.37576 70.7936 10.3669C72.1245 13.3579 74.4538 14.1334 75.7847 14.4657C77.1157 14.7981 78.4467 14.6873 78.4467 14.6873C78.4467 14.6873 78.114 13.5795 78.3358 11.0315C78.5576 8.48358 78.3358 6.48955 75.6738 5.16016C73.0119 3.83081 70.3499 5.04938 70.0172 4.27392Z" fill="#00615C"/>
</g>
<defs>
<filter id="filter0_d_1_175" x="-2.20829" y="21.3475" width="94.123" height="54.2586" filterUnits="userSpaceOnUse" color-interpolation-filters="sRGB">
<feFlood flood-opacity="0" result="BackgroundImageFix"/>
<feColorMatrix in="SourceAlpha" type="matrix" values="0 0 0 0 0 0 0 0 0 0 0 0 0 0 0 0 0 0 127 0" result="hardAlpha"/>
<feOffset dy="2.26772"/>
<feGaussianBlur stdDeviation="2.26772"/>
<feColorMatrix type="matrix" values="0 0 0 0 0.317647 0 0 0 0 0.505882 0 0 0 0 0.588235 0 0 0 0.75 0"/>
<feBlend mode="normal" in2="BackgroundImageFix" result="effect1_dropShadow_1_175"/>
<feBlend mode="normal" in="SourceGraphic" in2="effect1_dropShadow_1_175" result="shape"/>
</filter>
<filter id="filter1_d_1_175" x="74.0515" y="12.7751" width="78.1337" height="44.1124" filterUnits="userSpaceOnUse" color-interpolation-filters="sRGB">
<feFlood flood-opacity="0" result="BackgroundImageFix"/>
<feColorMatrix in="SourceAlpha" type="matrix" values="0 0 0 0 0 0 0 0 0 0 0 0 0 0 0 0 0 0 127 0" result="hardAlpha"/>
<feOffset dy="2.26772"/>
<feGaussianBlur stdDeviation="2.26772"/>
<feColorMatrix type="matrix" values="0 0 0 0 0.317647 0 0 0 0 0.505882 0 0 0 0 0.588235 0 0 0 0.75 0"/>
<feBlend mode="normal" in2="BackgroundImageFix" result="effect1_dropShadow_1_175"/>
<feBlend mode="normal" in="SourceGraphic" in2="effect1_dropShadow_1_175" result="shape"/>
</filter>
<filter id="filter2_d_1_175" x="39.5749" y="11.298" width="81.8382" height="65.3672" filterUnits="userSpaceOnUse" color-interpolation-filters="sRGB">
<feFlood flood-opacity="0" result="BackgroundImageFix"/>
<feColorMatrix in="SourceAlpha" type="matrix" values="0 0 0 0 0 0 0 0 0 0 0 0 0 0 0 0 0 0 127 0" result="hardAlpha"/>
<feOffset dy="3.37185"/>
<feGaussianBlur stdDeviation="3.37185"/>
<feColorMatrix type="matrix" values="0 0 0 0 0.317647 0 0 0 0 0.505882 0 0 0 0 0.588235 0 0 0 1 0"/>
<feBlend mode="normal" in2="BackgroundImageFix" result="effect1_dropShadow_1_175"/>
<feBlend mode="normal" in="SourceGraphic" in2="effect1_dropShadow_1_175" result="shape"/>
</filter>
<clipPath id="clip0_1_175">
<rect width="150" height="71" fill="white" transform="translate(0 0.876221)"/>
</clipPath>
</defs>
</svg>
